<svg width="95" height="209" viewBox="0 0 95 209" fill="none" xmlns="http://www.w3.org/2000/svg">
<path d="M35.9568 113.303C35.7286 111.413 35.3449 109.29 34.2217 107.553C33.8867 107.034 33.5237 106.485 33.2152 105.962C32.8781 105.389 32.4464 105.051 31.9258 104.552C30.8819 103.552 29.9161 102.58 28.7459 101.658C26.8262 100.147 25.0349 98.4881 22.9912 97.0563C21.9644 96.337 21.4011 95.3447 20.5477 94.527C19.6836 93.699 18.9353 92.632 18.4653 91.6542" stroke="#C6D9AD" stroke-linecap="round"/>
<path d="M37.116 97.3887C37.479 96.7656 37.8285 96.0638 38.3264 95.5143C38.7233 95.0764 39.2492 94.7098 39.6861 94.3033C40.1372 93.8837 40.6402 93.4824 41.1453 93.1193C41.6146 92.7819 41.9666 92.358 42.4552 92.0433C43.321 91.4857 44.0603 90.7074 45.0627 90.3425C45.5389 90.1691 47.1686 89.6119 47.1147 90.5161C47.0917 90.9009 46.5291 91.3341 46.2358 91.5574C45.839 91.8594 45.4085 92.1425 45.0295 92.4598C44.2334 93.1264 43.3043 93.7125 42.4138 94.2648C41.5266 94.8151 40.7468 95.5301 39.8353 96.0389C39.3455 96.3123 38.9619 96.7296 38.4674 97.0107C38.1745 97.1773 37.116 96.7639 37.116 97.3887Z" stroke="#C6D9AD" stroke-linecap="round"/>
<path d="M23.8318 98C22.6091 98.1686 21.4337 98.705 20.4011 99.3869C20.1645 99.5431 19.9189 99.6872 19.6712 99.8248C19.4492 99.9481 19.3552 100.207 19.217 100.409C19.0303 100.682 18.8258 101.44 19.2495 101.617C19.7417 101.823 20.2544 101.472 20.6769 101.285C21.0778 101.106 21.6386 100.777 21.9502 100.466C22.3591 100.057 22.6886 99.5811 23.1018 99.1679C23.4489 98.8208 23.6383 98.3479 24.0507 98.073" stroke="#C6D9AD" stroke-linecap="round"/>
<path d="M53.4778 51.499C54.3112 51.1175 55.1683 50.6401 56.1077 50.6102C56.4811 50.5984 56.85 50.551 57.2252 50.551C57.5444 50.551 57.8586 50.5372 58.1732 50.5954C58.4677 50.65 58.7895 50.6717 59.0767 50.7584C59.3984 50.8555 59.7342 50.8983 60.0477 51.025C60.3434 51.1445 60.6664 51.4624 60.7488 51.7804C60.8427 52.1424 60.5357 52.2885 60.232 52.3729C59.985 52.4415 59.743 52.5108 59.4914 52.572C58.8929 52.7176 58.2676 52.6839 57.6548 52.6839C57.3887 52.6839 57.1226 52.6839 56.8566 52.6839C56.5992 52.6839 56.3598 52.6006 56.1077 52.595C55.8347 52.589 55.5864 52.4765 55.3145 52.4765C55.1545 52.4765 55.0274 52.4023 54.8718 52.3893C54.7148 52.3762 54.5672 52.3516 54.411 52.3284C54.1316 52.287 53.8035 52.3267 53.5371 52.2231C53.3251 52.1406 53.0778 52.0767 52.8557 52.1507" stroke="#C6D9AD" stroke-linecap="round"/>
<path d="M60.0808 44.0216C59.8641 43.615 59.6672 43.1908 59.4358 42.7922C59.3692 42.6777 59.3137 42.5755 59.2808 42.4467C59.2412 42.2915 59.1358 42.1306 59.0546 41.9943C58.876 41.6945 58.6922 41.3204 58.619 40.9765C58.4698 40.2751 58.1959 39.6248 58.1959 38.8947C58.1959 38.1669 58.3821 37.411 58.8284 36.8213C59.0064 36.5861 59.4137 36.2486 59.7122 36.1888C60.1128 36.1087 60.1771 36.6598 60.2316 36.9323C60.2922 37.2356 60.4336 37.5279 60.4955 37.8371C60.5532 38.1258 60.6118 38.4151 60.6442 38.7062C60.7203 39.3912 60.8195 40.0748 60.8746 40.7628C60.9239 41.3792 61.1385 42.0084 60.9667 42.6268C60.8881 42.9099 60.8747 43.1878 60.7405 43.4561C60.6767 43.5838 60.6212 43.72 60.5332 43.8331C60.4545 43.9342 60.3265 44.1848 60.5332 43.9839C61.0752 43.4569 61.6115 42.9539 62.2463 42.5346C62.6336 42.2789 63.0416 42.0623 63.4652 41.8728C63.8568 41.6976 64.2544 41.4699 64.6799 41.3911C65.2921 41.2778 65.9025 41.1237 66.5188 41.0142C66.7843 40.9669 67.1709 40.9747 67.3481 41.211C67.484 41.3923 67.618 41.8705 67.4696 42.0613C67.0362 42.6185 66.5527 42.9627 65.9072 43.2467C65.5671 43.3963 65.2215 43.5385 64.8705 43.6614C64.6954 43.7227 64.5018 43.7288 64.3239 43.7787C64.1211 43.8354 63.9316 43.9171 63.7207 43.9462C63.1055 44.0311 62.4844 44.1531 61.8715 44.2666C61.3541 44.3625 60.7584 44.2855 60.2316 44.2855" stroke="#C6D9AD" stroke-linecap="round"/>
<path d="M44.5891 62.3185C41.7626 59.4921 39.5794 56.0933 36.1313 53.9861C34.6608 53.0874 32.8329 52.0566 32.0434 50.4777C31.5186 49.4281 30.057 46.8797 31.9025 46.2645C34.1373 45.5196 34.3825 47.55 35.8494 48.7235C37.4466 50.0013 38.3007 51.377 39.4518 53.015C40.4847 54.485 41.0565 56.3023 42.1144 57.8078C43.1292 59.2519 43.7973 61.0169 44.5891 62.6005" stroke="#C6D9AD" stroke-linecap="round"/>
<path d="M44.589 62.8824C45.8551 61.1604 47.1697 59.2655 48.3167 57.4632C49.3944 55.7696 50.9309 54.3429 52.1383 52.7331C54.4453 49.6571 57.9074 47.5565 60.0948 44.2754" stroke="#C6D9AD" stroke-linecap="round"/>
<path d="M42.6487 207.886C44.6646 200.237 44.1229 192.615 43.7808 185.029C43.4452 177.589 43.5798 170.119 43.4152 162.685C43.3315 158.905 43.311 155.456 42.3868 151.873C41.8762 149.894 41.9428 147.751 41.615 145.723C41.253 143.483 40.6363 141.38 40.2509 139.164C39.5518 135.144 39.0936 131.19 38.2046 127.208C37.3085 123.194 36.5345 119.221 36.0723 115.023C35.3491 108.455 36.527 101.841 37.3859 95.1647C37.8021 91.9302 38.8456 88.7058 39.2127 85.4893C39.642 81.7276 40.7755 77.5053 41.8024 73.8449C42.6928 70.6707 43.7157 67.1959 44.0978 63.9464C44.5265 60.301 44.6555 56.8193 44.8872 53.1963C45.24 47.6818 44.9672 42.1751 44.8442 36.727C44.7171 31.1007 43.2949 25.9711 42.691 20.4866" stroke="#C6D9AD" stroke-linecap="round"/>
<circle cx="44.4613" cy="7.59612" r="6.64407" transform="rotate(-1.17817 44.4613 7.59612)" fill="white"/>
<circle cx="44.4613" cy="7.59612" r="6.64407" transform="rotate(-1.17817 44.4613 7.59612)" fill="white"/>
<circle cx="52.1894" cy="14.0827" r="6.64407" transform="rotate(-1.17817 52.1894 14.0827)" fill="white"/>
<circle cx="44.26" cy="20.8912" r="6.64407" transform="rotate(-1.17817 44.26 20.8912)" fill="white"/>
<circle cx="37.4807" cy="14.3851" r="6.64407" transform="rotate(-1.17817 37.4807 14.3851)" fill="white"/>
<circle cx="44.5979" cy="14.2388" r="4.27119" transform="rotate(-1.17817 44.5979 14.2388)" fill="#FFDE68"/>
<path d="M11.9095 87.4244C11.439 86.3575 11.3493 85.0317 11.7183 83.9186C12.006 81.5113 13.1275 79.3975 15.9105 80.1689C18.0281 80.7559 20.2574 83.4863 19.6509 85.8004C19.338 86.9942 19.2612 88.9371 18.0904 89.6352C16.7957 90.4073 15.8053 90.7151 14.4359 89.9508C13.2666 89.2983 12.4664 88.6874 11.9095 87.4244Z" fill="white"/>
<path d="M11.9742 83.319C11.3291 84.5264 11.3509 86.1578 11.9095 87.4244C12.4664 88.6874 13.2666 89.2983 14.4359 89.9508C15.8053 90.7151 16.7957 90.4073 18.0904 89.6352C19.2612 88.9371 19.338 86.9942 19.6509 85.8004C20.2574 83.4863 18.0281 80.7559 15.9105 80.1689C12.9382 79.345 11.8611 81.8121 11.6709 84.413" stroke="white" stroke-width="3" stroke-linecap="round"/>
<path d="M17.1195 87.1275C15.468 88.357 12.0933 88.9773 12.8787 90.2701C13.9474 92.0294 15.7922 92.6935 17.1691 91.6684C17.996 91.0528 18.7174 90.2343 19.39 89.4346C19.7927 88.9557 20.065 88.5015 20.3309 87.9203C20.5357 87.4725 20.5093 87.035 20.6469 86.5749C20.7449 86.2474 20.8046 85.5148 20.3672 85.4337C19.9813 85.3622 19.5816 85.6303 19.2555 85.8096C18.5148 86.2168 17.8076 86.6153 17.1195 87.1275Z" fill="#C6D9AD" stroke="#C6D9AD" stroke-width="2" stroke-linecap="round"/>
</svg>
