<svg width="113" height="228" viewBox="0 0 113 228" fill="none" xmlns="http://www.w3.org/2000/svg">
<path d="M24.3037 120.111C24.6973 118.248 25.0188 116.115 24.5161 114.108C24.3662 113.509 24.1998 112.873 24.0767 112.277C23.9422 111.627 23.6428 111.167 23.3108 110.527C22.6454 109.244 22.0448 108.012 21.2343 106.762C19.9047 104.712 18.7442 102.565 17.2715 100.55C16.5316 99.5381 16.3185 98.4172 15.7745 97.3679C15.2236 96.3054 14.8595 95.0542 14.7301 93.977" stroke="#C6D9AD" stroke-linecap="round"/>
<path d="M30.5342 105.421C31.0788 104.948 31.6359 104.397 32.2845 104.037C32.8014 103.751 33.4175 103.573 33.9621 103.329C34.5245 103.078 35.1301 102.86 35.7252 102.679C36.2783 102.511 36.7482 102.224 37.3122 102.083C38.3116 101.835 39.2624 101.337 40.3289 101.314C40.8356 101.304 42.558 101.302 42.2152 102.141C42.0693 102.497 41.3971 102.726 41.0475 102.843C40.5744 103.001 40.0756 103.13 39.6146 103.308C38.646 103.682 37.5775 103.937 36.5564 104.173C35.5392 104.407 34.5705 104.833 33.5436 105.02C32.9917 105.121 32.494 105.392 31.9352 105.499C31.6043 105.562 30.7357 104.829 30.5342 105.421Z" stroke="#C6D9AD" stroke-linecap="round"/>
<path d="M17.7628 101.715C16.5511 101.48 15.2655 101.608 14.0682 101.921C13.7938 101.992 13.5149 102.049 13.236 102.1C12.9861 102.145 12.8137 102.359 12.6178 102.506C12.353 102.704 11.9149 103.356 12.2587 103.66C12.6582 104.014 13.2566 103.848 13.7171 103.806C14.154 103.767 14.791 103.636 15.1865 103.441C15.7055 103.186 16.1708 102.842 16.6952 102.585C17.1356 102.368 17.4675 101.982 17.9465 101.854" stroke="#C6D9AD" stroke-linecap="round"/>
<path d="M60.8233 67.2613C61.7352 67.1691 62.7005 66.9936 63.5994 67.2684C63.9566 67.3776 64.3211 67.4517 64.6762 67.5728C64.9784 67.6757 65.2802 67.764 65.5592 67.9206C65.8204 68.0672 66.1179 68.1915 66.3619 68.3663C66.6351 68.562 66.9391 68.7108 67.195 68.9318C67.4363 69.1403 67.6395 69.5454 67.6149 69.873C67.587 70.246 67.2494 70.2852 66.9347 70.2671C66.6787 70.2524 66.4273 70.2399 66.1694 70.2167C65.5559 70.1615 64.9749 69.9279 64.3948 69.7302C64.143 69.6444 63.8911 69.5586 63.6393 69.4728C63.3957 69.3897 63.196 69.2337 62.9592 69.1471C62.7026 69.0533 62.5039 68.8668 62.2465 68.7791C62.0951 68.7275 61.9987 68.6162 61.8556 68.5537C61.7113 68.4907 61.5794 68.4197 61.4391 68.3474C61.188 68.2182 60.8646 68.1499 60.6458 67.9659C60.4718 67.8194 60.2583 67.6791 60.0243 67.6776" stroke="#C6D9AD" stroke-linecap="round"/>
<path d="M69.4853 62.3134C69.4113 61.8587 69.3617 61.3936 69.2712 60.9417C69.2452 60.8118 69.2256 60.6972 69.236 60.5646C69.2485 60.4049 69.2007 60.2186 69.1678 60.0635C69.0954 59.7221 69.0421 59.3087 69.0838 58.9595C69.1687 58.2476 69.1193 57.5437 69.3548 56.8526C69.5896 56.1637 70.0096 55.5083 70.6223 55.094C70.8666 54.9288 71.361 54.7407 71.6628 54.7804C72.0678 54.8338 71.951 55.3762 71.9146 55.6517C71.8742 55.9583 71.9138 56.2806 71.8726 56.5932C71.8341 56.8852 71.7963 57.1779 71.733 57.4639C71.5841 58.1368 71.4575 58.8159 71.2877 59.4849C71.1356 60.0842 71.1357 60.749 70.7737 61.2789C70.6079 61.5215 70.5056 61.7803 70.2921 61.991C70.1905 62.0912 70.094 62.2023 69.9742 62.2809C69.8672 62.3513 69.6652 62.5472 69.9256 62.4237C70.6087 62.0997 71.2785 61.7965 72.0147 61.6044C72.4637 61.4873 72.9198 61.4139 73.3819 61.3712C73.809 61.3317 74.2589 61.2444 74.687 61.307C75.303 61.3972 75.9305 61.4482 76.5492 61.5433C76.8158 61.5843 77.1791 61.7163 77.2707 61.9972C77.3409 62.2126 77.3134 62.7084 77.1114 62.8412C76.5214 63.2288 75.9528 63.3986 75.2502 63.4593C74.88 63.4912 74.507 63.5143 74.1352 63.5174C73.9496 63.5189 73.7644 63.4623 73.5799 63.4521C73.3697 63.4404 73.1639 63.4566 72.955 63.4161C72.3452 63.298 71.7179 63.2132 71.1012 63.123C70.5805 63.0468 70.0415 62.7818 69.5429 62.6119" stroke="#C6D9AD" stroke-linecap="round"/>
<path d="M48.9198 74.6355C47.1561 71.0485 46.1859 67.1271 43.6018 64.0204C42.4997 62.6954 41.102 61.1301 40.864 59.381C40.7058 58.2182 40.1443 55.3345 42.0895 55.3475C44.4452 55.3632 44.0224 57.3642 45.0324 58.9482C46.1321 60.6729 46.4968 62.2505 47.058 64.1723C47.5616 65.8968 47.5166 67.8015 48.0324 69.5676C48.5271 71.262 48.5902 73.1481 48.8289 74.9024" stroke="#C6D9AD" stroke-linecap="round"/>
<path d="M48.7379 75.1692C50.4917 73.9477 52.3473 72.5781 54.0143 71.242C55.5806 69.9866 57.4953 69.1318 59.1573 67.9975C62.3332 65.83 66.2878 64.9584 69.4166 62.5582" stroke="#C6D9AD" stroke-linecap="round"/>
<path d="M0.129836 211.797C4.50522 205.207 6.45097 197.818 8.574 190.527C10.6564 183.376 13.1931 176.349 15.4351 169.259C16.5753 165.654 17.6682 162.383 17.9492 158.693C18.1044 156.655 18.8584 154.649 19.2024 152.623C19.5823 150.386 19.6767 148.197 20.0267 145.975C20.6616 141.944 21.5034 138.053 21.9463 133.998C22.3927 129.909 22.9418 125.898 23.8584 121.776C25.2921 115.326 28.5407 109.445 31.507 103.403C32.9443 100.475 34.972 97.7599 36.357 94.8337C37.9767 91.4115 40.4116 87.7805 42.5642 84.6469C44.4309 81.9296 46.5199 78.9705 47.9297 76.018C49.5113 72.7057 50.7564 69.4517 52.1444 66.0971C54.2571 60.9911 55.775 55.6907 57.4159 50.4941C59.1104 45.1275 59.4188 39.8133 60.6162 34.4273" stroke="#C6D9AD" stroke-linecap="round"/>
<circle cx="66.4497" cy="22.7967" r="6.64407" transform="rotate(17.6392 66.4497 22.7967)" fill="white"/>
<circle cx="66.4497" cy="22.7967" r="6.64407" transform="rotate(17.6392 66.4497 22.7967)" fill="white"/>
<circle cx="71.6726" cy="31.4293" r="6.64407" transform="rotate(17.6392 71.6726 31.4293)" fill="white"/>
<circle cx="61.9708" cy="35.3163" r="6.64407" transform="rotate(17.6392 61.9708 35.3163)" fill="white"/>
<circle cx="57.6524" cy="26.9713" r="6.64407" transform="rotate(17.6392 57.6524 26.9713)" fill="white"/>
<circle cx="64.4364" cy="29.1284" r="4.27119" transform="rotate(17.6392 64.4364 29.1284)" fill="#FFDE68"/>
<path d="M9.88889 87.8587C9.78769 86.697 10.1304 85.4132 10.8387 84.4785C11.8875 82.2927 13.6309 80.6536 16.0163 82.2815C17.8314 83.5202 19.0609 86.8237 17.7403 88.8185C17.0591 89.8476 16.3597 91.6618 15.0264 91.945C13.5519 92.2582 12.5151 92.2301 11.4654 91.0649C10.569 90.0701 10.0087 89.2338 9.88889 87.8587Z" fill="white"/>
<path d="M11.2743 83.9935C10.2743 84.9283 9.76875 86.4796 9.88889 87.8587C10.0087 89.2338 10.569 90.0701 11.4654 91.0649C12.5151 92.2301 13.5519 92.2582 15.0264 91.945C16.3597 91.6618 17.0591 89.8476 17.7403 88.8185C19.0609 86.8237 17.8314 83.5202 16.0163 82.2815C13.4687 80.5429 11.6534 82.5307 10.6344 84.9312" stroke="white" stroke-width="3" stroke-linecap="round"/>
<path d="M14.9163 89.2581C12.9565 89.8892 9.56203 89.3878 9.88841 90.8649C10.3325 92.8749 11.8646 94.0985 13.4986 93.5724C14.4798 93.2564 15.4266 92.7143 16.3212 92.1743C16.8569 91.8509 17.2612 91.5088 17.7003 91.0444C18.0386 90.6866 18.1547 90.264 18.4334 89.8729C18.6318 89.5945 18.9246 88.9203 18.5367 88.7025C18.1945 88.5102 17.7296 88.6351 17.3632 88.6996C16.5307 88.8462 15.7327 88.9952 14.9163 89.2581Z" fill="#C6D9AD" stroke="#C6D9AD" stroke-width="2" stroke-linecap="round"/>
</svg>
