<svg width="172" height="248" viewBox="0 0 172 248" fill="none" xmlns="http://www.w3.org/2000/svg">
<path d="M-10.4917 204.049C-2.23394 198.879 4.78526 193.776 11.5316 186.444C17.2207 180.262 20.89 172.762 26.3315 166.406C32.9541 158.671 36.6355 150.132 40.4218 141.25C44.4474 131.808 48.903 123.377 54.6768 114.641C56.9562 111.193 58.8944 106.933 61.4729 103.74C64.535 99.9496 68.2207 97.0003 71.5426 93.5446C78.1154 86.7069 86.3331 81.7983 93.5909 75.9126C97.0601 73.0992 101.341 71.9711 104.873 69.1896C108.552 66.292 111.726 64.1153 114.978 60.5813C120.712 54.3498 127.179 48.9041 132.962 42.62" stroke="#C6D9AD" stroke-linecap="round"/>
<path d="M106.944 68.0443C111.507 67.5852 116.172 67.6191 120.715 67.6583C122.245 67.6715 123.887 68.7045 125.233 69.3544C126.454 69.9441 129.025 71.3866 126.13 71.0139C124.491 70.8029 122.676 71.3574 121.054 70.9756C119.457 70.5998 117.73 70.8209 116.11 70.6369C114.378 70.4402 112.623 70.5336 110.916 70.3397C109.305 70.1566 107.491 70.118 106.272 68.933" stroke="#C6D9AD" stroke-linecap="round"/>
<path d="M88.2591 115.788C89.8064 112.583 91.538 109.666 91.636 106.03C91.6593 105.163 91.8708 104.344 91.8939 103.486C91.9186 102.57 91.4846 101.759 91.4719 100.843C91.4533 99.5003 92.61 96.9958 94.1226 98.6192C96.0119 100.647 94.5345 105.501 93.6187 107.702C92.3671 110.71 92.043 113.793 88.7407 115.293" stroke="#C6D9AD" stroke-linecap="round"/>
<path d="M106.84 109.962C109.317 109.967 111.357 111.097 113.515 112.214C114.4 112.672 115.026 113.437 115.788 114.039C116.308 114.45 118.254 116.105 116.655 116.263C112.544 116.671 109.914 112.173 106.555 110.552" stroke="#C6D9AD" stroke-linecap="round"/>
<path d="M47.9918 126.022C53.5472 121.128 60.6737 118.244 66.0859 117.686C71.5148 117.125 77.7828 115.127 82.808 115.622C86.8897 116.024 92.2731 116.283 97.0886 114.802C102.918 113.009 109.142 107.728 114.991 104.861" stroke="#C6D9AD" stroke-linecap="round"/>
<path d="M133.979 100.118C130.351 101.997 125.887 100.579 124.008 96.9519C122.129 93.3243 123.547 88.8603 127.174 86.9813C130.802 85.1022 135.266 86.5197 137.145 90.1473C139.024 93.7749 137.606 98.2389 133.979 100.118Z" fill="white"/>
<path d="M132.589 110.781C128.962 112.66 124.498 111.242 122.619 107.615C120.74 103.987 122.157 99.5231 125.785 97.6441C129.412 95.765 133.876 97.1825 135.755 100.81C137.634 104.438 136.217 108.902 132.589 110.781Z" fill="white"/>
<path d="M124.279 96.8118C120.651 98.6909 116.187 97.2734 114.308 93.6458C112.429 90.0182 113.847 85.5542 117.474 83.6752C121.102 81.7962 125.566 83.2136 127.445 86.8412C129.324 90.4688 127.906 94.9328 124.279 96.8118Z" fill="white"/>
<path d="M119.05 104.357C115.423 106.236 110.959 104.819 109.08 101.191C107.201 97.5636 108.618 93.0996 112.246 91.2206C115.873 89.3416 120.337 90.759 122.216 94.3866C124.095 98.0142 122.678 102.478 119.05 104.357Z" fill="white"/>
<path d="M124.288 112.393C120.66 114.273 116.196 112.855 114.317 109.227C112.438 105.6 113.856 101.136 117.483 99.2569C121.111 97.3778 125.575 98.7953 127.454 102.423C129.333 106.05 127.915 110.514 124.288 112.393Z" fill="white"/>
<path d="M125.649 103.089C123.075 104.423 119.907 103.417 118.573 100.842C117.24 98.2677 118.246 95.0997 120.82 93.7662C123.394 92.4327 126.562 93.4387 127.896 96.0131C129.229 98.5875 128.224 101.755 125.649 103.089Z" fill="#FFDE68"/>
<path d="M125.649 103.089C123.075 104.423 119.907 103.417 118.573 100.842C117.24 98.2677 118.246 95.0997 120.82 93.7662C123.394 92.4327 126.562 93.4387 127.896 96.0131C129.229 98.5875 128.224 101.755 125.649 103.089Z" fill="#FFDE68"/>
<path d="M133.253 35.5302C133.862 34.5358 134.9 33.707 136.025 33.3762C138.168 32.2415 140.544 31.9593 141.495 34.6861C142.219 36.761 141.245 40.1485 138.997 40.9681C137.838 41.3909 136.197 42.4344 134.956 41.8698C133.584 41.2454 132.767 40.6067 132.615 39.0458C132.486 37.713 132.532 36.7074 133.253 35.5302Z" fill="white"/>
<path d="M136.664 33.2449C135.304 33.4025 133.976 34.3497 133.253 35.5302C132.532 36.7074 132.486 37.713 132.615 39.0458C132.767 40.6067 133.584 41.2454 134.956 41.8698C136.197 42.4344 137.838 41.3909 138.997 40.9681C141.245 40.1485 142.219 36.761 141.495 34.6861C140.479 31.7738 137.838 32.2938 135.592 33.6188" stroke="white" stroke-width="3" stroke-linecap="round"/>
<path d="M136.428 39.5801C134.674 38.7334 134.219 37.2411 132.291 36.3104C131.681 36.016 131.436 38.2662 131.623 39.1415C131.874 40.3105 132.079 40.853 132.887 41.7197C133.983 42.8962 136.545 43.574 138.056 42.8653C139.149 42.3523 139.881 41.8779 138.734 40.9723C138.015 40.4042 137.253 39.9785 136.428 39.5801Z" fill="#C6D9AD" stroke="#C6D9AD" stroke-width="2" stroke-linecap="round"/>
</svg>
