<svg width="80" height="217" viewBox="0 0 80 217" fill="none" xmlns="http://www.w3.org/2000/svg">
<path d="M96.2862 205.355C93.3727 201.279 90.8134 197.328 87.262 193.891C84.5608 191.276 82.0541 188.022 79.0932 185.815C76.2551 183.699 74.6871 180.015 73.0072 176.817C71.085 173.157 69.0628 169.519 67.1421 165.862C63.5235 158.972 61.2453 151.528 57.9894 144.45C55.1763 138.335 54.6607 132.07 54.0512 125.484C53.3538 117.948 53.2986 110.142 51.9455 102.649C50.6588 95.5253 49.2677 88.3165 48.7397 81.122C48.2127 73.9427 48.0915 66.7281 46.9262 59.5796C45.7949 52.6392 45.652 46.0481 42.4895 39.6502" stroke="#C6D9AD" stroke-linecap="round"/>
<path d="M54.7511 132.408C53.8172 128.71 51.8068 125.531 49.2652 123.197C47.7854 121.838 46.467 120.299 45.0519 118.839C44.3414 118.106 43.5039 117.715 42.7718 117.022C41.971 116.263 41.1506 115.55 40.3531 114.779C38.926 113.399 37.2143 111.648 35.5664 110.832C34.6863 110.397 33.845 109.883 33.0154 109.267C32.1242 108.606 31.2737 108.211 30.5673 107.216C28.7568 104.664 26.8546 101.821 26.0414 98.6003" stroke="#C6D9AD" stroke-linecap="round"/>
<path d="M49.6794 88.4164C52.9667 85.8417 56.8404 83.8047 59.5561 80.4197C62.5776 76.6535 63.9551 71.9237 66.138 67.5485" stroke="#C6D9AD" stroke-linecap="round"/>
<path d="M46.7295 18.5811C47.1667 23.3083 43.689 27.4949 38.9618 27.9322C34.2345 28.3694 30.0479 24.8917 29.6107 20.1644C29.1734 15.4372 32.6512 11.2505 37.3784 10.8133C42.1056 10.3761 46.2923 13.8538 46.7295 18.5811Z" fill="white"/>
<path d="M57.6024 24.7386C58.0396 29.4659 54.5619 33.6525 49.8347 34.0897C45.1074 34.527 40.9208 31.0492 40.4836 26.322C40.0463 21.5948 43.5241 17.4081 48.2513 16.9709C52.9786 16.5337 57.1652 20.0114 57.6024 24.7386Z" fill="white"/>
<path d="M38.9291 27.5797C39.3663 32.3069 35.8886 36.4935 31.1613 36.9308C26.4341 37.368 22.2475 33.8903 21.8102 29.163C21.373 24.4358 24.8507 20.2492 29.578 19.8119C34.3052 19.3747 38.4918 22.8524 38.9291 27.5797Z" fill="white"/>
<path d="M44.7675 36.5077C45.2047 41.235 41.727 45.4216 36.9997 45.8588C32.2725 46.2961 28.0858 42.8183 27.6486 38.0911C27.2114 33.3639 30.6891 29.1772 35.4164 28.74C40.1436 28.3028 44.3302 31.7805 44.7675 36.5077Z" fill="white"/>
<path d="M55.7097 34.3818C56.1469 39.109 52.6692 43.2956 47.942 43.7329C43.2147 44.1701 39.0281 40.6924 38.5909 35.9651C38.1536 31.2379 41.6314 27.0513 46.3586 26.614C51.0859 26.1768 55.2725 29.6545 55.7097 34.3818Z" fill="white"/>
<path d="M46.2867 28.8484C46.597 32.2033 44.129 35.1744 40.7742 35.4847C37.4193 35.795 34.4482 33.3269 34.1379 29.9721C33.8276 26.6173 36.2957 23.6462 39.6505 23.3359C43.0053 23.0256 45.9764 25.4936 46.2867 28.8484Z" fill="#FFDE68"/>
<path d="M46.2867 28.8484C46.597 32.2033 44.129 35.1744 40.7742 35.4847C37.4193 35.795 34.4482 33.3269 34.1379 29.9721C33.8276 26.6173 36.2957 23.6462 39.6505 23.3359C43.0053 23.0256 45.9764 25.4936 46.2867 28.8484Z" fill="#FFDE68"/>
<path d="M66.5024 63.8236L66.4849 63.8652C67.7081 64.2308 68.8783 64.6586 70.1222 64.6603C70.4191 64.6607 70.7202 64.7687 71.0191 64.7843C71.3673 64.8026 71.7138 64.7689 72.0629 64.7809C72.8832 64.8091 73.4623 64.6968 74.2216 64.5606C75.4807 64.3349 76.6442 63.9377 77.6855 63.4233C78.8562 62.8451 77.8599 61.6435 77.1797 60.9252C76.3516 60.0507 75.6877 59.1579 74.1883 58.8966C72.6636 58.6309 71.3503 59.7481 70.3439 60.3303C69.7028 60.7012 69.1789 61.1651 68.6158 61.5928C68.1072 61.9792 67.6943 62.2184 67.377 62.7149C67.2424 62.9256 66.9239 63.3338 66.6075 63.5744C66.8077 63.1017 67.0116 62.6395 67.2648 62.1876C67.3648 62.0092 67.4548 61.7692 67.4963 61.575C67.5764 61.2003 67.6502 60.7472 67.826 60.3993L67.8409 60.3697C68.2371 59.5857 68.6598 58.7492 68.5743 57.8618C68.4971 57.0596 68.9517 55.9488 68.0904 55.2385C67.2327 54.5312 65.952 53.9366 64.7859 53.5745C64.3292 53.4327 63.5684 53.2844 63.1092 53.3709C62.5551 53.4754 62.1806 54.0175 61.9183 54.3483C61.3287 55.0919 61.1024 55.9542 61.2538 56.86C61.4152 57.8257 61.7234 58.8411 62.1962 59.7809C62.446 60.2775 63.002 60.7677 63.3715 61.235C63.8024 61.78 64.34 62.2085 64.8493 62.7096C65.1109 62.9669 65.7688 63.9079 66.3018 63.7446C66.399 63.7148 66.5031 63.6537 66.6075 63.5744C66.5724 63.6571 66.5375 63.7402 66.5024 63.8236Z" fill="white" stroke="white" stroke-width="3" stroke-linecap="round"/>
<path d="M20.7246 95.1433C20.3662 94.0336 20.4131 92.7057 20.8944 91.6363C21.4278 89.2713 22.7604 87.2838 25.4494 88.3369C27.4956 89.1383 29.4328 92.0832 28.5918 94.3228C28.158 95.4782 27.8821 97.4028 26.6459 97.9771C25.2787 98.6121 24.262 98.8166 22.9782 97.9157C21.8821 97.1466 21.1489 96.4568 20.7246 95.1433Z" fill="white"/>
<path d="M21.2105 91.0661C20.4448 92.201 20.2991 93.8259 20.7246 95.1433C21.1489 96.4568 21.8821 97.1466 22.9782 97.9157C24.262 98.8166 25.2787 98.6121 26.6459 97.9771C27.8821 97.4028 28.158 95.4782 28.5918 94.3228C29.4328 92.0832 27.4956 89.1383 25.4494 88.3369C22.5776 87.2122 21.2528 89.5557 20.7965 92.1232" stroke="white" stroke-width="3" stroke-linecap="round"/>
<path d="M24.5779 99.4968C25.1081 99.5557 25.1738 99.5178 25.7392 99.6082C27.9725 99.6082 28.9596 97.6444 29.7596 95.8665C30.1021 95.1055 30.4669 93.7322 29.179 94.0542C28.3395 94.2641 27.2022 95.1316 26.3726 95.3621C25.5275 95.5968 24.66 95.5472 23.8389 95.8665C23.4306 96.0252 23.091 96.3384 22.6777 96.4647C22.3353 96.5693 20.895 96.7287 20.7596 97.0767C20.4453 97.8851 22.8294 98.9994 23.4167 99.1625C23.7997 99.2689 24.1786 99.4524 24.5779 99.4968Z" fill="#C6D9AD" stroke="#C6D9AD" stroke-linecap="round"/>
<path d="M64.3984 64.129C63.8374 63.9981 63.3444 63.6507 62.8507 63.3698C62.8507 63.7455 63.1834 64.241 63.3825 64.5655C63.5089 64.7715 63.6852 64.987 63.8466 65.1664C64.0412 65.3826 64.2124 65.6151 64.3999 65.8381C64.5798 66.052 64.7941 66.2345 64.9809 66.4421C65.1362 66.6146 65.3561 66.8375 65.5557 66.96C65.7381 67.072 65.9135 67.2044 66.1151 67.2828C66.2684 67.3424 66.4711 67.2825 66.6269 67.2689C67.0971 67.228 67.6166 67.2052 68.0809 67.3135C68.5056 67.4126 68.9162 67.4365 69.3519 67.4365C69.8051 67.4365 70.1473 67.4511 70.5968 67.5533C70.9887 67.6423 71.4828 67.5548 71.8694 67.4503C71.9889 67.418 72.3163 67.4102 72.4227 67.3473C72.4838 67.3112 72.7823 66.96 72.4227 67.0476C72.2402 67.0273 72.0472 66.9804 71.8694 66.9323C71.3478 66.7914 70.8513 66.6074 70.3816 66.336C69.8338 66.0195 69.3183 65.686 68.9646 65.1403C68.7091 64.7461 68.8653 64.63 68.5 64.3104C68.4225 64.2425 67.9466 64.0258 67.8595 64.0475C67.7684 64.0703 67.6938 64.1044 67.609 64.1444C67.4295 64.2291 67.1702 64.2616 66.9743 64.2812C66.7707 64.3015 66.5626 64.3612 66.358 64.3657C66.1436 64.3703 65.9285 64.3657 65.714 64.3657C65.5051 64.3657 65.3037 64.315 65.0977 64.3104C64.8471 64.3047 64.637 64.1847 64.3984 64.129Z" fill="#C6D9AD" stroke="#C6D9AD" stroke-linecap="round"/>
</svg>
