<svg width="124" height="230" viewBox="0 0 124 230" fill="none" xmlns="http://www.w3.org/2000/svg">
<path d="M27.3876 120.287C27.9586 118.471 28.4838 116.379 28.1766 114.332C28.085 113.722 27.9806 113.072 27.9153 112.468C27.844 111.807 27.5902 111.321 27.3214 110.652C26.7826 109.311 26.3033 108.027 25.6168 106.705C24.4906 104.537 23.542 102.287 22.27 100.141C21.6309 99.0619 21.5267 97.9257 21.0861 96.829C20.64 95.7184 20.398 94.4379 20.3728 93.3533" stroke="#C6D9AD" stroke-linecap="round"/>
<path d="M35.0025 106.264C35.5901 105.846 36.1977 105.351 36.8778 105.056C37.4199 104.82 38.0502 104.703 38.6158 104.513C39.1997 104.316 39.8234 104.158 40.4332 104.035C40.9999 103.921 41.4953 103.68 42.0702 103.595C43.0888 103.443 44.0832 103.039 45.1469 103.12C45.6522 103.158 47.3668 103.322 46.945 104.123C46.7654 104.465 46.0743 104.627 45.7151 104.71C45.229 104.822 44.7201 104.902 44.2441 105.035C43.244 105.314 42.1559 105.465 41.1169 105.602C40.0818 105.737 39.0767 106.067 38.0365 106.155C37.4775 106.203 36.956 106.425 36.3895 106.477C36.0541 106.508 35.26 105.695 35.0025 106.264Z" stroke="#C6D9AD" stroke-linecap="round"/>
<path d="M22.647 101.347C21.4635 100.997 20.1715 101.001 18.9497 101.197C18.6697 101.241 18.3865 101.271 18.1041 101.295C17.851 101.316 17.6588 101.513 17.4497 101.64C17.167 101.811 16.6683 102.418 16.9812 102.754C17.3448 103.145 17.9565 103.036 18.4188 103.039C18.8575 103.042 19.5042 102.973 19.9165 102.818C20.4576 102.614 20.9538 102.316 21.5006 102.11C21.9598 101.937 22.3273 101.584 22.8164 101.504" stroke="#C6D9AD" stroke-linecap="round"/>
<path d="M68.8225 71.1962C69.739 71.1921 70.7167 71.1104 71.585 71.4704C71.9301 71.6134 72.2857 71.7223 72.6276 71.8769C72.9184 72.0085 73.2103 72.1253 73.473 72.3081C73.7189 72.4792 74.0031 72.6315 74.229 72.8289C74.4821 73.05 74.7705 73.2274 75.0039 73.472C75.224 73.7028 75.3873 74.1255 75.3313 74.4492C75.2676 74.8178 74.9278 74.8243 74.6163 74.776C74.363 74.7368 74.1139 74.7002 73.8595 74.6523C73.2541 74.5382 72.6983 74.2498 72.1399 73.9973C71.8975 73.8876 71.6551 73.778 71.4126 73.6683C71.1781 73.5623 70.9944 73.3878 70.767 73.2788C70.5207 73.1607 70.3408 72.9559 70.0931 72.8439C69.9473 72.7779 69.8621 72.6579 69.7257 72.5819C69.588 72.5053 69.4637 72.422 69.3309 72.3365C69.0935 72.1837 68.7781 72.0846 68.5781 71.8804C68.4189 71.7179 68.2199 71.5577 67.9871 71.5336" stroke="#C6D9AD" stroke-linecap="round"/>
<path d="M77.9204 67.1047C77.8905 66.6449 77.8859 66.1773 77.8393 65.7188C77.8259 65.5869 77.8174 65.471 77.8405 65.34C77.8684 65.1823 77.8387 64.9922 77.8209 64.8346C77.7817 64.4878 77.7684 64.0713 77.8434 63.7277C77.9965 63.0272 78.015 62.3218 78.3159 61.6566C78.6159 60.9935 79.097 60.3816 79.7467 60.0282C80.0058 59.8873 80.516 59.7475 80.8126 59.8162C81.2106 59.9082 81.0421 60.4369 80.9794 60.7076C80.9097 61.0089 80.9181 61.3335 80.847 61.6407C80.7806 61.9276 80.7148 62.2153 80.6243 62.4939C80.4113 63.1494 80.22 63.8131 79.9866 64.4627C79.7775 65.0446 79.7137 65.7064 79.3024 66.199C79.114 66.4245 78.9873 66.6722 78.7545 66.8614C78.6437 66.9514 78.537 67.0526 78.4102 67.1194C78.2969 67.1791 78.077 67.3547 78.3481 67.2568C79.0592 67 79.755 66.7627 80.5063 66.6424C80.9645 66.5689 81.4255 66.5398 81.8896 66.5417C82.3186 66.5435 82.7747 66.4999 83.1948 66.6034C83.7993 66.7524 84.4189 66.8636 85.0256 67.0178C85.287 67.0842 85.636 67.2506 85.7001 67.5389C85.7493 67.7601 85.6742 68.251 85.4604 68.3637C84.8359 68.6928 84.2535 68.8071 83.5483 68.7999C83.1768 68.7961 82.8033 68.7832 82.4329 68.7505C82.2481 68.7341 82.0691 68.66 81.8865 68.632C81.6783 68.6002 81.472 68.5965 81.2679 68.5361C80.6724 68.3599 80.0561 68.2151 79.4509 68.0659C78.94 67.94 78.429 67.6244 77.949 67.4073" stroke="#C6D9AD" stroke-linecap="round"/>
<path d="M56.2647 77.391C54.8543 73.6509 54.2659 69.6544 51.9927 66.3135C51.0232 64.8886 49.7826 63.196 49.714 61.4322C49.6684 60.2595 49.3869 57.3352 51.3219 57.5353C53.6652 57.7776 53.0518 59.7286 53.9047 61.4024C54.8333 63.2249 55.0446 64.8303 55.4182 66.7971C55.7536 68.5622 55.5256 70.4536 55.869 72.2612C56.1985 73.9953 56.0798 75.8787 56.1486 77.6479" stroke="#C6D9AD" stroke-linecap="round"/>
<path d="M56.0323 77.9047C57.8955 76.8576 59.8743 75.6728 61.662 74.5034C63.3419 73.4045 65.3299 72.7378 67.0934 71.7687C70.4631 69.9168 74.4833 69.4297 77.8285 67.3417" stroke="#C6D9AD" stroke-linecap="round"/>
<path d="M-5.49536 209.222C-0.506242 203.084 2.14141 195.916 4.95606 188.863C7.71677 181.946 10.9178 175.195 13.8316 168.354C15.3134 164.875 16.7159 161.725 17.3506 158.079C17.7012 156.065 18.6447 154.141 19.182 152.157C19.7754 149.967 20.0799 147.797 20.6421 145.619C21.6618 141.669 22.8741 137.877 23.7051 133.882C24.5428 129.856 25.4752 125.917 26.7842 121.901C28.8318 115.62 32.6311 110.078 36.1651 104.349C37.8773 101.574 40.1568 99.0661 41.8169 96.2867C43.7584 93.0363 46.5313 89.6564 48.9754 86.7444C51.0949 84.2194 53.4589 81.4749 55.1463 78.6717C57.0392 75.527 58.5916 72.4079 60.2959 69.2024C62.89 64.3233 64.9109 59.1936 67.0441 54.1789C69.2471 49.0003 70.0654 43.7404 71.7754 38.4946" stroke="#C6D9AD" stroke-linecap="round"/>
<circle cx="78.7007" cy="27.4792" r="6.64407" transform="rotate(23.1602 78.7007 27.4792)" fill="white"/>
<circle cx="78.7007" cy="27.4792" r="6.64407" transform="rotate(23.1602 78.7007 27.4792)" fill="white"/>
<circle cx="83.0688" cy="36.5743" r="6.64407" transform="rotate(23.1602 83.0688 36.5743)" fill="white"/>
<circle cx="73.0381" cy="39.5098" r="6.64407" transform="rotate(23.1602 73.0381 39.5098)" fill="white"/>
<circle cx="69.5426" cy="30.788" r="6.64407" transform="rotate(23.1602 69.5426 30.788)" fill="white"/>
<circle cx="76.0875" cy="33.5878" r="4.27119" transform="rotate(23.1602 76.0875 33.5878)" fill="#FFDE68"/>
<path d="M16.1427 86.7976C16.1538 85.6315 16.6184 84.3866 17.4134 83.5245C18.6676 81.4497 20.5606 79.986 22.7783 81.8358C24.4658 83.2433 25.3717 86.6498 23.8654 88.5083C23.0883 89.4671 22.2177 91.2056 20.8632 91.3592C19.3654 91.5291 18.3362 91.4014 17.4034 90.1406C16.607 89.0642 16.1297 88.1779 16.1427 86.7976Z" fill="white"/>
<path d="M17.8936 83.0836C16.8082 83.9179 16.1558 85.4133 16.1427 86.7976C16.1297 88.1779 16.607 89.0642 17.4034 90.1406C18.3362 91.4014 19.3654 91.5291 20.8632 91.3592C22.2177 91.2056 23.0883 89.4671 23.8654 88.5083C25.3717 86.6498 24.4658 83.2433 22.7783 81.8358C20.4098 79.8602 18.4116 81.6641 17.1664 83.9554" stroke="white" stroke-width="3" stroke-linecap="round"/>
<path d="M21.0121 88.6742C19.0006 89.1139 15.6702 88.2882 15.8529 89.7898C16.1016 91.8332 17.5088 93.1986 19.1859 92.832C20.1929 92.6119 21.1875 92.1635 22.1299 91.712C22.6942 91.4417 23.1296 91.14 23.6113 90.72C23.9824 90.3965 24.1387 89.987 24.4537 89.6245C24.678 89.3665 25.0343 88.7236 24.6692 88.4695C24.347 88.2452 23.8723 88.3248 23.5014 88.3538C22.6587 88.4195 21.85 88.4911 21.0121 88.6742Z" fill="#C6D9AD" stroke="#C6D9AD" stroke-width="2" stroke-linecap="round"/>
</svg>
