<svg width="111" height="223" viewBox="0 0 111 223" fill="none" xmlns="http://www.w3.org/2000/svg">
<path d="M14.4008 221.635C19.5892 213.388 23.6913 205.741 26.579 196.205C29.0142 188.164 29.0576 179.815 31.1944 171.725C33.7951 161.88 33.3975 152.59 32.9457 142.946C32.4654 132.692 32.8124 123.163 34.2135 112.785C34.7666 108.689 34.6598 104.009 35.5939 100.014C36.7033 95.2687 38.7401 91.0102 40.229 86.4539C43.1751 77.4386 48.4412 69.4452 52.418 60.9893C54.3189 56.9474 57.6831 54.0705 59.6545 50.0299C61.7082 45.8207 63.6197 42.4807 65.0117 37.8842C67.4662 29.7795 70.9222 22.0637 73.3974 13.8904" stroke="#C6D9AD" stroke-linecap="round"/>
<path d="M61.0217 48.098C64.9312 45.7007 69.1474 43.7026 73.2552 41.7628C74.6391 41.1093 76.5664 41.3259 78.0612 41.3259C79.4175 41.3259 82.3594 41.5073 79.5904 42.4303C78.0231 42.9527 76.6299 44.2411 75.0029 44.6027C73.4015 44.9585 71.9419 45.9089 70.4031 46.4474C68.7584 47.0231 67.2182 47.8704 65.5971 48.4378C64.0659 48.9737 62.4157 49.7277 60.8032 49.1903" stroke="#C6D9AD" stroke-linecap="round"/>
<path d="M64.9539 99.2167C64.9539 95.658 65.2447 92.2777 63.7524 88.9614C63.3965 88.1706 63.2305 87.3404 62.8786 86.5584C62.5023 85.7223 61.7589 85.1807 61.3494 84.3617C60.7487 83.1603 60.7014 80.402 62.7693 81.2062C65.3524 82.2107 66.1324 87.2243 66.2646 89.6046C66.4453 92.8575 67.4942 95.7751 65.1723 98.5613" stroke="#C6D9AD" stroke-linecap="round"/>
<path d="M79.1536 85.8909C81.3867 84.819 83.7143 84.9496 86.1442 85.0171C87.14 85.0447 88.0359 85.4617 88.9841 85.6724C89.6307 85.8161 92.1031 86.4606 90.7317 87.2987C87.2073 89.4525 82.8835 86.5462 79.1536 86.5462" stroke="#C6D9AD" stroke-linecap="round"/>
<path d="M33.1418 125.941C36.0167 119.118 41.1804 113.423 45.8114 110.566C50.4566 107.701 55.2325 103.177 59.9729 101.437C63.8234 100.025 68.7841 97.9175 72.4766 94.49C76.947 90.3405 80.2552 82.8787 84.2763 77.7541" stroke="#C6D9AD" stroke-linecap="round"/>
<path d="M99.3128 65.2268C96.863 68.4962 92.2267 69.1606 88.9574 66.7108C85.688 64.2611 85.0236 59.6248 87.4734 56.3554C89.9231 53.086 94.5594 52.4216 97.8288 54.8714C101.098 57.3212 101.763 61.9574 99.3128 65.2268Z" fill="white"/>
<path d="M102.698 75.4331C100.248 78.7025 95.6115 79.3669 92.3421 76.9171C89.0728 74.4674 88.4084 69.8311 90.8581 66.5617C93.3079 63.2924 97.9442 62.6279 101.214 65.0777C104.483 67.5275 105.147 72.1638 102.698 75.4331Z" fill="white"/>
<path d="M89.1401 66.467C86.6903 69.7364 82.054 70.4008 78.7847 67.9511C75.5153 65.5013 74.8509 60.865 77.3006 57.5957C79.7504 54.3263 84.3867 53.6619 87.656 56.1116C90.9254 58.5614 91.5898 63.1977 89.1401 66.467Z" fill="white"/>
<path d="M87.7123 75.5352C85.2626 78.8046 80.6263 79.469 77.3569 77.0192C74.0875 74.5695 73.4231 69.9332 75.8729 66.6638C78.3227 63.3944 82.9589 62.73 86.2283 65.1798C89.4977 67.6296 90.1621 72.2658 87.7123 75.5352Z" fill="white"/>
<path d="M95.923 80.4948C93.4733 83.7642 88.837 84.4286 85.5676 81.9789C82.2982 79.5291 81.6338 74.8928 84.0836 71.6235C86.5334 68.3541 91.1696 67.6897 94.439 70.1394C97.7084 72.5892 98.3728 77.2255 95.923 80.4948Z" fill="white"/>
<path d="M93.1034 71.524C91.3648 73.8442 88.0746 74.3157 85.7544 72.5772C83.4342 70.8386 82.9627 67.5484 84.7012 65.2282C86.4398 62.908 89.73 62.4365 92.0502 64.175C94.3704 65.9136 94.8419 69.2038 93.1034 71.524Z" fill="#FFDE68"/>
<path d="M93.1034 71.524C91.3648 73.8442 88.0746 74.3157 85.7544 72.5772C83.4342 70.8386 82.9627 67.5484 84.7012 65.2282C86.4398 62.908 89.73 62.4365 92.0502 64.175C94.3704 65.9136 94.8419 69.2038 93.1034 71.524Z" fill="#FFDE68"/>
<path d="M70.577 7.37918C70.693 6.21887 71.2679 5.02092 72.1373 4.23384C73.5734 2.28047 75.5905 0.993219 77.6325 3.03525C79.1864 4.58911 79.7818 8.06335 78.1142 9.7786C77.2539 10.6635 76.2302 12.3165 74.8674 12.3475C73.3604 12.3817 72.3468 12.1618 71.5314 10.8222C70.8352 9.67839 70.4396 8.75269 70.577 7.37918Z" fill="white"/>
<path d="M72.6553 3.83803C71.4992 4.57118 70.7147 6.00171 70.577 7.37918C70.4396 8.75269 70.8352 9.67839 71.5314 10.8222C72.3468 12.1618 73.3604 12.3817 74.8674 12.3475C76.2302 12.3165 77.2539 10.6635 78.1142 9.7786C79.7818 8.06335 79.1864 4.58911 77.6325 3.03525C75.4516 0.854334 73.2991 2.47097 71.8525 4.64081" stroke="white" stroke-width="3" stroke-linecap="round"/>
<path d="M75.1973 9.64558C73.25 9.64558 72.1906 8.5 70.0499 8.5C69.3728 8.5 70.1302 10.6331 70.6798 11.3396C71.4138 12.2834 71.8345 12.6828 72.9385 13.1121C74.4372 13.6949 77.0391 13.1914 78.0913 11.8965C78.853 10.959 79.3059 10.2135 77.8795 9.89655C76.9849 9.69774 76.1138 9.64558 75.1973 9.64558Z" fill="#C6D9AD" stroke="#C6D9AD" stroke-width="2" stroke-linecap="round"/>
</svg>
