<svg width="128" height="230" viewBox="0 0 128 230" fill="none" xmlns="http://www.w3.org/2000/svg">
<path d="M173.347 218.255C170.657 208.891 167.689 200.736 162.505 192.229C158.132 185.054 151.936 179.457 147.329 172.473C141.722 163.973 134.531 158.078 127.039 151.987C119.075 145.512 112.201 138.903 105.398 130.942C102.712 127.799 99.1526 124.761 96.7961 121.401C93.9977 117.412 92.1801 113.055 89.7754 108.909C85.0175 100.704 82.5674 91.4508 78.9134 82.8506C77.1668 78.7396 77.2639 74.3141 75.5652 70.1515C73.7957 65.8152 72.5794 62.1641 70.0802 58.063C65.6734 50.8317 62.224 43.1129 57.78 35.8205" stroke="#C6D9AD" stroke-linecap="round"/>
<path d="M75.0361 67.8447C75.8542 63.3322 77.1743 58.8572 78.4657 54.5018C78.9008 53.0346 80.3467 51.742 81.3429 50.6275C82.2468 49.6163 84.3427 47.5438 83.1854 50.2234C82.5304 51.7401 82.5625 53.6375 81.7477 55.0915C80.9459 56.5225 80.6816 58.2441 80.0577 59.7503C79.3907 61.3601 78.996 63.0731 78.3387 64.6599C77.7178 66.1586 77.1801 67.8915 75.7048 68.7355" stroke="#C6D9AD" stroke-linecap="round"/>
<path d="M115.769 98.9806C113.115 96.6089 110.789 94.1393 107.322 93.0418C106.495 92.7801 105.766 92.3506 104.948 92.0918C104.074 91.8151 103.175 92.0085 102.291 91.768C100.995 91.4152 98.9071 89.6122 100.885 88.6064C103.355 87.35 107.613 90.1097 109.476 91.5975C112.021 93.6306 114.896 94.793 115.426 98.3809" stroke="#C6D9AD" stroke-linecap="round"/>
<path d="M115.297 79.5131C115.986 77.1338 117.634 75.4854 119.304 73.7188C119.988 72.9948 120.896 72.6048 121.685 72.0383C122.223 71.652 124.352 70.2382 124.062 71.8191C123.319 75.8822 118.271 77.169 115.785 79.9498" stroke="#C6D9AD" stroke-linecap="round"/>
<path d="M114.492 140.509C111.321 133.818 110.516 126.172 111.473 120.816C112.433 115.444 112.242 108.868 114.105 104.174C115.617 100.362 117.352 95.2591 117.258 90.2219C117.143 84.1236 113.785 76.6843 112.644 70.2711" stroke="#C6D9AD" stroke-linecap="round"/>
<path d="M113.325 50.7118C114.13 54.7171 111.536 58.6165 107.531 59.4213C103.525 60.2262 99.6259 57.6318 98.821 53.6265C98.0161 49.6212 100.611 45.7218 104.616 44.9169C108.621 44.112 112.521 46.7065 113.325 50.7118Z" fill="white"/>
<path d="M123.191 54.9902C123.995 58.9954 121.401 62.8948 117.396 63.6997C113.39 64.5046 109.491 61.9101 108.686 57.9049C107.881 53.8996 110.476 50.0002 114.481 49.1953C118.486 48.3904 122.386 50.9849 123.191 54.9902Z" fill="white"/>
<path d="M107.471 59.1227C108.275 63.1279 105.681 67.0274 101.676 67.8322C97.6704 68.6371 93.771 66.0427 92.9661 62.0374C92.1613 58.0321 94.7557 54.1327 98.761 53.3278C102.766 52.5229 106.666 55.1174 107.471 59.1227Z" fill="white"/>
<path d="M113.28 66.2305C114.085 70.2358 111.49 74.1352 107.485 74.9401C103.48 75.7449 99.5803 73.1505 98.7755 69.1452C97.9706 65.1399 100.565 61.2405 104.57 60.4357C108.576 59.6308 112.475 62.2252 113.28 66.2305Z" fill="white"/>
<path d="M122.45 63.4143C123.254 67.4196 120.66 71.319 116.655 72.1239C112.649 72.9287 108.75 70.3343 107.945 66.329C107.14 62.3237 109.735 58.4243 113.74 57.6194C117.745 56.8146 121.645 59.409 122.45 63.4143Z" fill="white"/>
<path d="M113.882 59.5379C114.453 62.3804 112.612 65.1477 109.77 65.7189C106.927 66.2901 104.16 64.4489 103.589 61.6064C103.017 58.764 104.859 55.9967 107.701 55.4255C110.544 54.8543 113.311 56.6955 113.882 59.5379Z" fill="#FFDE68"/>
<path d="M113.882 59.5379C114.453 62.3804 112.612 65.1477 109.77 65.7189C106.927 66.2901 104.16 64.4489 103.589 61.6064C103.017 58.764 104.859 55.9967 107.701 55.4255C110.544 54.8543 113.311 56.6955 113.882 59.5379Z" fill="#FFDE68"/>
<path d="M51.0459 33.5839C50.2581 32.7241 49.7481 31.4971 49.7407 30.3244C49.2414 27.9519 49.626 25.5902 52.5093 25.4286C54.7034 25.3057 57.6904 27.1771 57.8579 29.5636C57.9443 30.7947 58.4944 32.6596 57.6093 33.6962C56.6305 34.8426 55.7911 35.4517 54.2489 35.1669C52.9321 34.9237 51.9784 34.6017 51.0459 33.5839Z" fill="white"/>
<path d="M49.7908 29.6744C49.5669 31.025 50.1107 32.5632 51.0459 33.5839C51.9784 34.6017 52.9321 34.9237 54.2489 35.1669C55.7911 35.4517 56.6305 34.8426 57.6093 33.6962C58.4944 32.6596 57.9443 30.7947 57.8579 29.5636C57.6904 27.1771 54.7034 25.3057 52.5093 25.4286C49.4299 25.6012 49.2006 28.2834 49.8543 30.808" stroke="white" stroke-width="3" stroke-linecap="round"/>
<path d="M55.8147 31.6496C54.5169 33.1015 52.9568 33.1279 51.5302 34.7238C51.0789 35.2286 53.174 36.0855 54.0671 36.1467C55.2599 36.2284 55.838 36.1809 56.8939 35.6439C58.3272 34.915 59.6858 32.6395 59.4215 30.9921C59.2302 29.7994 58.9762 28.9649 57.7894 29.8171C57.0449 30.3516 56.4255 30.9663 55.8147 31.6496Z" fill="#C6D9AD" stroke="#C6D9AD" stroke-width="2" stroke-linecap="round"/>
</svg>
