<svg width="100" height="218" viewBox="0 0 100 218" fill="none" xmlns="http://www.w3.org/2000/svg">
<path d="M110.444 119.425C108.964 118.228 107.21 116.971 105.194 116.507C104.593 116.368 103.95 116.227 103.364 116.066C102.723 115.89 102.178 115.947 101.457 115.952C100.011 115.961 98.6409 115.936 97.1595 116.09C94.7292 116.342 92.2885 116.399 89.8248 116.795C88.587 116.994 87.4917 116.674 86.3098 116.681C85.113 116.689 83.833 116.444 82.8148 116.07" stroke="#C6D9AD" stroke-linecap="round"/>
<path d="M100.193 107.197C100.02 106.497 99.7816 105.75 99.7563 105.009C99.7361 104.418 99.8582 103.789 99.8887 103.193C99.9202 102.577 100.002 101.939 100.111 101.327C100.213 100.758 100.171 100.209 100.302 99.6424C100.535 98.6393 100.524 97.566 100.989 96.606C101.21 96.15 101.991 94.6151 102.582 95.3015C102.834 95.5937 102.732 96.2964 102.677 96.6608C102.602 97.154 102.491 97.657 102.44 98.1486C102.332 99.1814 102.074 100.249 101.819 101.266C101.566 102.278 101.504 103.334 101.204 104.334C101.043 104.872 101.059 105.438 100.9 105.984C100.805 106.308 99.7578 106.748 100.193 107.197Z" stroke="#C6D9AD" stroke-linecap="round"/>
<path d="M91.0853 116.887C90.3253 117.859 89.8553 119.063 89.5891 120.271C89.5281 120.548 89.4522 120.823 89.3703 121.094C89.2969 121.337 89.4095 121.588 89.451 121.829C89.5071 122.155 89.8883 122.842 90.3159 122.674C90.8126 122.479 90.9363 121.87 91.1087 121.441C91.2723 121.034 91.4454 120.407 91.452 119.966C91.4607 119.388 91.366 118.818 91.3748 118.233C91.3822 117.742 91.1888 117.271 91.2933 116.787" stroke="#C6D9AD" stroke-linecap="round"/>
<path d="M79.9769 62.8697C80.3093 62.0156 80.5919 61.0761 81.2453 60.4004C81.505 60.1319 81.7367 59.841 82.006 59.5797C82.2351 59.3574 82.4509 59.1287 82.7173 58.9514C82.9666 58.7854 83.2126 58.5769 83.4791 58.4391C83.7777 58.2848 84.0484 58.0816 84.3616 57.9543C84.6571 57.8341 85.1103 57.8373 85.3908 58.0081C85.7103 58.2026 85.5918 58.5211 85.4326 58.7932C85.3031 59.0144 85.1777 59.2328 85.0398 59.4519C84.7117 59.9732 84.2394 60.3845 83.7996 60.8112C83.6087 60.9965 83.4178 61.1818 83.2268 61.3671C83.0421 61.5464 82.8124 61.6533 82.6275 61.8248C82.4273 62.0106 82.1709 62.1029 81.9757 62.2922C81.8609 62.4036 81.718 62.4389 81.5973 62.5379C81.4756 62.6378 81.3524 62.723 81.2242 62.8151C80.9949 62.98 80.787 63.237 80.5237 63.3481C80.3141 63.4366 80.0921 63.5629 79.9843 63.7707" stroke="#C6D9AD" stroke-linecap="round"/>
<path d="M79.5082 52.9053C79.0695 52.7644 78.6327 52.5971 78.1891 52.4722C78.0616 52.4363 77.9505 52.4017 77.8372 52.3322C77.7007 52.2484 77.513 52.2063 77.3599 52.165C77.0229 52.0743 76.6305 51.9338 76.3384 51.738C75.7429 51.3386 75.0935 51.0626 74.5851 50.5386C74.0782 50.0163 73.6855 49.3442 73.595 48.6102C73.559 48.3175 73.6162 47.7916 73.7888 47.5408C74.0205 47.2044 74.4504 47.5551 74.6793 47.7127C74.934 47.8881 75.2391 47.9993 75.4988 48.1782C75.7413 48.3452 75.9848 48.512 76.2108 48.6984C76.7424 49.137 77.2897 49.5584 77.8084 50.0139C78.273 50.4218 78.8652 50.724 79.1726 51.2873C79.3133 51.5453 79.4972 51.754 79.5878 52.04C79.6309 52.1761 79.6859 52.3125 79.7015 52.455C79.7155 52.5823 79.7982 52.8513 79.8065 52.5632C79.8285 51.8075 79.8631 51.0731 80.0267 50.3301C80.1265 49.8768 80.2685 49.4373 80.4405 49.0063C80.5996 48.6078 80.7263 48.1675 80.9768 47.8146C81.3372 47.307 81.6679 46.7714 82.0339 46.2635C82.1916 46.0447 82.4744 45.7811 82.7662 45.8273C82.99 45.8627 83.4191 46.1126 83.4455 46.3529C83.5225 47.0546 83.4152 47.6382 83.1498 48.2916C83.01 48.6358 82.8609 48.9786 82.6946 49.3112C82.6116 49.4771 82.477 49.6163 82.384 49.776C82.278 49.958 82.1989 50.1485 82.0678 50.3163C81.6854 50.8056 81.3247 51.3258 80.9639 51.8341C80.6593 52.2632 80.1782 52.6228 79.8001 52.9896" stroke="#C6D9AD" stroke-linecap="round"/>
<path d="M81.1327 76.8245C77.1359 76.7645 73.2022 75.8458 69.2603 76.7349C67.5791 77.114 65.5494 77.6472 63.8834 77.0639C62.7758 76.6762 59.9521 75.8652 60.8481 74.1385C61.9331 72.0475 63.5231 73.3339 65.3931 73.1545C67.4292 72.9592 69.0002 73.3517 70.9669 73.7256C72.7319 74.0612 74.4079 74.9671 76.2154 75.3108C77.9495 75.6405 79.658 76.4418 81.329 77.0269" stroke="#C6D9AD" stroke-linecap="round"/>
<path d="M81.5253 77.2292C81.2348 75.1118 80.8586 72.8364 80.4265 70.7442C80.0205 68.7783 80.1296 66.6844 79.875 64.6883C79.3885 60.8742 80.4101 56.9556 79.6949 53.0776" stroke="#C6D9AD" stroke-linecap="round"/>
<path d="M181.115 182.642C177.235 175.749 171.538 170.656 166.01 165.45C160.587 160.344 155.482 154.89 150.187 149.67C147.494 147.015 145.078 144.554 141.919 142.627C140.174 141.562 138.73 139.978 137.082 138.751C135.262 137.395 133.356 136.316 131.535 134.994C128.234 132.596 125.152 130.077 121.741 127.838C118.302 125.582 114.98 123.269 111.724 120.579C106.632 116.369 102.871 110.802 98.8378 105.413C96.8839 102.802 95.3873 99.7611 93.4108 97.1971C91.0992 94.1986 88.9722 90.379 87.1599 87.037C85.5885 84.139 83.9026 80.933 81.9139 78.3349C79.6828 75.4203 77.3507 72.8318 74.994 70.0704C71.4068 65.8673 67.3761 62.1054 63.4936 58.2812C59.4843 54.332 54.8913 51.6412 50.6385 48.1259" stroke="#C6D9AD" stroke-linecap="round"/>
<circle cx="42.9318" cy="37.6423" r="6.64407" transform="rotate(-45.3178 42.9318 37.6423)" fill="white"/>
<circle cx="42.9318" cy="37.6423" r="6.64407" transform="rotate(-45.3178 42.9318 37.6423)" fill="white"/>
<circle cx="52.9952" cy="36.9154" r="6.64407" transform="rotate(-45.3178 52.9952 36.9154)" fill="white"/>
<circle cx="52.0461" cy="47.3236" r="6.64407" transform="rotate(-45.3178 52.0461 47.3236)" fill="white"/>
<circle cx="42.6501" cy="47.3757" r="6.64407" transform="rotate(-45.3178 42.6501 47.3757)" fill="white"/>
<circle cx="47.6559" cy="42.3143" r="4.27119" transform="rotate(-45.3178 47.6559 42.3143)" fill="#FFDE68"/>
<path d="M75.1644 117.6C74.0837 117.162 73.0961 116.273 72.5857 115.217C71.1157 113.289 70.4485 110.991 72.9829 109.607C74.9114 108.553 78.4127 108.96 79.589 111.043C80.1958 112.118 81.4937 113.566 81.1397 114.882C80.7483 116.338 80.2519 117.248 78.7369 117.654C77.4433 118 76.4437 118.119 75.1644 117.6Z" fill="white"/>
<path d="M72.3517 114.609C72.7297 115.924 73.8814 117.08 75.1644 117.6C76.4437 118.119 77.4433 118 78.7369 117.654C80.2519 117.248 80.7483 116.338 81.1397 114.882C81.4937 113.566 80.1958 112.118 79.589 111.043C78.4127 108.96 74.9114 108.553 72.9829 109.607C70.2761 111.085 71.2212 113.606 72.896 115.605" stroke="white" stroke-width="3" stroke-linecap="round"/>
<path d="M78.6966 113.759C78.3677 115.791 76.3778 118.586 77.8417 118.967C79.8339 119.486 81.6203 118.677 81.8946 116.983C82.0593 115.965 82.007 114.875 81.9327 113.833C81.8882 113.209 81.7673 112.693 81.5533 112.091C81.3885 111.627 81.0649 111.332 80.8432 110.906C80.6855 110.602 80.2181 110.035 79.8478 110.281C79.5209 110.499 79.4208 110.97 79.3117 111.325C79.0637 112.133 78.8337 112.912 78.6966 113.759Z" fill="#C6D9AD" stroke="#C6D9AD" stroke-width="2" stroke-linecap="round"/>
</svg>
