<svg width="120" height="84" viewBox="0 0 120 84" fill="none" xmlns="http://www.w3.org/2000/svg">
<path d="M-11 5.80412C-6.82768 8.18831 -1.93325 9.04861 2.40448 11.2175C6.71418 13.3723 11.4999 16.2581 15.2934 19.2086C19.4571 22.447 22.5794 27.0123 27.1512 29.8062C29.4744 31.2259 31.1588 33.3593 33.3379 34.9331C35.376 36.4051 37.5513 37.7806 39.5246 39.3153C41.204 40.6215 43.3434 41.604 45.3103 42.4087C47.7121 43.3912 49.6944 45.0166 52.0125 46.0176C56.8621 48.1117 61.1918 48.3114 66.219 49.2255C70.3017 49.9678 75.0683 50.142 79.2225 50.142C83.5879 50.142 87.4015 48.7788 91.5958 48.0798" stroke="#C6D9AD" stroke-width="2" stroke-linecap="round"/>
<path d="M10.1378 15.0841C14.4197 11.8097 17.5964 6.97261 22.5112 4.51522C23.6356 3.953 33.7169 -0.717579 33.2233 1.67966C32.8451 3.51648 30.4696 5.52172 29.1848 6.80659C27.4239 8.56748 25.0347 9.13414 23.0267 10.4728C19.2393 12.9977 15.7052 14.5686 11.1689 14.5686" stroke="#C6D9AD" stroke-width="2" stroke-linecap="round"/>
<path d="M10.6533 15.0841C9.20751 19.3365 8.64553 23.6036 7.67452 27.9731C7.33997 29.4786 7.781 39.1684 10.6247 36.6802C13.1888 34.4366 12.2 29.4574 12.2 26.4264C12.2 22.8134 11.2454 19.1521 10.6533 15.5997" stroke="#C6D9AD" stroke-width="2" stroke-linecap="round"/>
<path d="M1.63115 23.3331C3.98671 20.0715 6.54723 17.5049 10.1378 15.5997C8.70196 18.4715 7.31193 22.2093 5.38326 24.8797C4.3646 26.2902 0.484809 31.9766 -1.66268 31.2096C-3.58584 30.5228 1.00477 24.2004 1.63115 23.3331Z" stroke="#C6D9AD" stroke-width="2" stroke-linecap="round"/>
<path d="M25.9932 28.587C27.2455 28.9541 28.3212 29.2009 29.6063 28.844C30.7248 28.5333 32.0244 28.2685 33.083 27.7921C34.2162 27.2822 35.4164 26.9675 36.5436 26.4191C37.6082 25.9012 38.8666 25.6499 39.8678 25.0381C40.789 24.4751 41.7742 23.9028 42.7663 23.4563C43.9659 22.9165 45.0428 22.2106 46.227 21.6497C47.4383 21.0759 48.4894 20.4521 49.5511 19.6263C50.6367 18.782 51.5995 17.7161 52.8752 17.1694" stroke="#C6D9AD" stroke-width="2" stroke-linecap="round"/>
<path d="M41.4575 23.5286C41.5176 21.0041 42.5878 18.4371 43.4809 16.1256C43.9867 14.8165 44.5581 13.645 45.2152 12.4C45.7 11.4814 47.0303 10.0696 48.1058 9.83061C49.3098 9.56304 48.4837 12.3494 48.3627 12.8336C48.0726 13.9941 47.7887 15.0864 47.2386 16.1577C45.9701 18.628 43.8366 20.3935 42.3247 22.6614" stroke="#C6D9AD" stroke-width="2" stroke-linecap="round"/>
<path d="M52.8752 17.0248C53.2306 14.4486 53.2001 11.6415 55.1877 9.65395C56.1538 8.6878 57.0039 7.51848 58.2308 6.8437C58.9481 6.44918 60.8182 5.23435 61.5308 6.0488C62.0906 6.68859 60.8439 8.60291 60.5352 9.22037C59.8804 10.5299 58.972 11.5342 57.9337 12.5445C56.9285 13.5225 55.9002 14.4613 54.8986 15.435C54.4054 15.9146 53.8998 16.369 53.4453 16.8803C52.7648 17.6459 53.9058 16.8185 54.176 16.6234C55.9623 15.3332 58.7796 14.4859 60.9687 14.2868C62.082 14.1856 63.3885 13.9872 64.4374 14.5117C65.6914 15.1386 66.6152 16.1912 65.16 17.1613C64.298 17.736 63.0822 17.5669 62.125 17.7796C61.026 18.0238 59.8816 18.1301 58.7687 18.3577C57.6721 18.582 56.5987 18.6458 55.4767 18.6146C54.331 18.5828 53.5139 17.6029 52.2971 17.6029" stroke="#C6D9AD" stroke-width="2" stroke-linecap="round"/>
<path d="M43.4809 23.2395C44.6452 23.2162 45.7697 22.8059 46.9496 22.8059C48.0745 22.8059 49.1577 22.6614 50.2817 22.6614C51.2934 22.6614 52.3633 22.7916 53.3088 23.1592C53.7898 23.3463 54.4362 23.3926 54.6577 23.9622C54.8801 24.534 54.0118 25.0216 53.5978 25.1826C51.8556 25.8601 49.817 25.841 47.9613 25.841C45.5905 25.841 43.8913 26.3959 42.0356 24.5403" stroke="#C6D9AD" stroke-width="2" stroke-linecap="round"/>
<path d="M37.4108 38.4149C38.1625 39.4798 37.9415 40.7771 38.4947 41.8835C38.9966 42.8873 38.8397 44.0339 39.0327 45.0952C39.4349 47.3076 39.2896 49.6126 39.2896 51.8639C39.2896 54.1138 39.4328 56.5532 40.0925 58.7209C40.4029 59.7405 40.624 60.7932 40.9115 61.8283C41.2199 62.9385 41.84 63.8341 42.0356 65.0079" stroke="#C6D9AD" stroke-width="2" stroke-linecap="round"/>
<path d="M41.8912 65.7305C41.6659 66.913 41.4576 68.2831 41.4576 69.4882C41.4576 70.5285 41.2632 71.7931 41.4897 72.8123C41.7431 73.9526 41.7986 75.0268 42.2525 76.1365C42.7223 77.2848 44.1501 78.5854 44.7737 76.7146C45.1285 75.6502 45.0409 74.4952 45.0708 73.3904C45.1011 72.267 45.1672 71.3384 44.854 70.2108C44.5691 69.1851 44.1655 68.1949 43.8825 67.1758C43.5412 65.9473 42.5658 65.2009 42.0357 64.1407" stroke="#C6D9AD" stroke-width="2" stroke-linecap="round"/>
<path d="M42.3247 64.5743C42.8019 65.2761 43.3185 65.8571 43.9145 66.4531C44.3534 66.8921 44.5529 67.4185 44.9262 67.8984C45.762 68.973 46.7715 69.7305 47.889 70.5079C48.9034 71.2136 49.8157 71.6837 51.0686 71.7926C52.5047 71.9175 52.6149 70.5121 52.2168 69.4882C51.3585 67.2813 49.0294 66.5536 47.0941 65.586C46.162 65.1199 45.1406 64.9907 44.2035 64.5743C43.7475 64.3716 43.2347 64.2542 42.7583 64.1086C42.1923 63.9356 41.8155 63.2695 41.4575 62.84" stroke="#C6D9AD" stroke-width="2" stroke-linecap="round"/>
<path d="M38.8561 51.1333C37.7203 51.3766 36.8838 52.2952 36.1181 53.1566C35.3383 54.0339 34.4737 55.0147 33.8057 55.9749C33.1917 56.8575 32.8249 57.5624 32.6093 58.6166C32.4441 59.4239 32.4253 61.0692 33.7976 60.383C34.9917 59.786 35.3627 58.7938 35.9655 57.7173C36.5627 56.6509 37.4212 55.7805 38.0531 54.7464C38.4552 54.0886 38.6173 53.0334 38.824 52.2895C39.0547 51.459 39.2897 50.5498 39.2897 49.688" stroke="#C6D9AD" stroke-width="2" stroke-linecap="round"/>
<path d="M54.6614 46.6097C58.9608 42.8741 62.9799 38.876 66.5271 34.4166C67.9207 32.6647 69.2421 30.8644 70.6392 29.118C71.9433 27.4878 74.7103 27.4233 74.7103 30.0386C74.7103 31.0814 73.7377 31.7682 73.0737 32.4322C72.2758 33.2301 71.478 34.0279 70.6801 34.8258C69.0817 36.4242 67.3054 38.0023 65.5349 39.4187C63.8651 40.7545 62.196 42.2609 60.3692 43.3773C58.82 44.324 57.0361 45.9377 55.2137 46.2414" stroke="#C6D9AD" stroke-width="2" stroke-linecap="round"/>
<path d="M67.55 49.5557C71.0268 51.9198 72.43 56.339 73.4829 60.2348C74.3942 63.6067 74.0379 67.9097 76.388 70.7298" stroke="#C6D9AD" stroke-width="2" stroke-linecap="round"/>
<path d="M76.3879 71.0981C76.0329 72.9618 76.2038 74.7703 76.572 76.6115C76.7391 77.4467 77.2936 78.5064 77.7177 79.2404C78.228 80.1237 78.5003 81.2925 79.3339 81.9409C80.8513 83.1211 80.5754 78.4001 80.4386 77.7163C80.1048 76.047 79.2942 73.7412 78.2189 72.3972C78.0649 72.2046 76.8191 70.3035 77.595 70.9242C78.4457 71.6048 79.2213 72.3733 80.2954 72.612C81.4966 72.8789 85.0231 74.9566 85.5532 72.5711C85.8727 71.1332 81.8794 70.1498 80.991 69.9524C79.4019 69.5993 77.8057 69.5238 76.2038 69.2568" stroke="#C6D9AD" stroke-width="2" stroke-linecap="round"/>
<path d="M72.3373 57.6571C70.2298 58.4009 69.0299 59.7727 67.5501 61.3395C66.6077 62.3374 65.8432 65.0526 68.0922 64.8277C69.6846 64.6684 70.8722 62.1075 71.6928 60.9713C72.0963 60.4126 72.4956 59.622 72.6646 58.9459C72.883 58.0723 72.4655 57.436 73.442 56.9206C74.9502 56.1246 76.3502 56.4371 77.6768 57.432C78.6 58.1244 81.3153 60.1468 81.1445 61.5134C81.0768 62.0551 79.7378 62.0873 79.3339 62.076C78.6201 62.0562 77.8007 61.6475 77.3086 61.1554C75.9878 59.8347 74.5131 59.0796 73.442 57.473" stroke="#C6D9AD" stroke-width="2" stroke-linecap="round"/>
<path d="M83.937 49.7398C84.9307 48.7753 86.2013 48.2391 86.883 46.9779C87.1311 46.5189 87.4836 46.1005 87.8036 45.6891C88.2279 45.1436 88.3182 44.4501 88.7242 43.8888C89.5748 42.7129 90.0787 41.32 90.4632 39.9403C90.7665 38.8519 91.36 37.9089 91.6804 36.8409C91.9924 35.8009 92.7848 34.8923 92.959 33.8029C93.1482 32.6205 93.6902 31.5094 93.8797 30.325C94.2063 28.2835 94.4848 26.1452 94.9844 24.1467" stroke="#C6D9AD" stroke-width="2" stroke-linecap="round"/>
<path d="M92.0385 36.2988C92.9164 34.6104 94.3435 33.5459 95.9153 32.5243C97.2126 31.681 98.6028 30.6961 100.048 30.1307C101.636 29.5092 103.099 28.6407 104.702 28.0132C106.147 27.448 107.779 26.9085 109.346 26.9085" stroke="#C6D9AD" stroke-width="2" stroke-linecap="round"/>
<path d="M94.6162 23.2261C93.4609 21.6549 92.0377 19.4641 91.8441 17.5285C91.7343 16.43 91.7162 15.9533 92.2226 14.9405C92.6479 14.0899 93.1897 13.0322 94.2582 12.9254C96.0629 12.7449 96.427 15.6668 96.4574 17.0068C96.4994 18.8542 96.0124 20.3484 95.68 22.1213C95.6132 22.4775 97.1161 20.4643 97.378 20.1369C98.0806 19.2587 98.7886 18.3135 99.6796 17.6205C100.476 17.0012 104.723 14.7242 104.723 17.242C104.723 18.8638 101.597 20.7482 100.324 21.3848C98.7427 22.1755 97.0077 23.2267 95.3527 23.7784" stroke="#C6D9AD" stroke-width="2" stroke-linecap="round"/>
<path d="M109.53 26.172C110.549 24.9785 119.391 19.4534 118.91 23.7784C118.575 26.792 107.334 27.3293 110.308 26.7346C113.121 26.172 118.762 27.4799 118.552 31.1433C118.452 32.8915 114.82 31.0263 114.133 30.683C112.408 29.8207 110.82 28.7512 109.714 27.0926" stroke="#C6D9AD" stroke-width="2" stroke-linecap="round"/>
<path d="M102.349 29.4862C104.72 30.2923 106.935 31.756 108.2 33.9461C108.606 34.6481 110.326 39.165 108.425 38.6515C107.64 38.4392 106.505 37.5469 105.848 37.0353C104.956 36.3421 104.061 35.6792 103.495 34.6826C103.099 33.9863 102.891 33.0303 102.718 32.2481C102.533 31.416 101.992 30.6137 101.613 29.8545" stroke="#C6D9AD" stroke-width="2" stroke-linecap="round"/>
<path d="M93.3273 28.7497C92.29 27.2242 90.4728 25.519 88.8674 24.5558C88.4104 24.2816 85.0218 22.7505 85.4509 24.5149C85.8367 26.101 88.7707 26.5867 89.829 27.645C90.9705 28.7865 92.3079 28.9765 93.6956 29.6704" stroke="#C6D9AD" stroke-width="2" stroke-linecap="round"/>
<path d="M90.5654 41.4542C92.0802 40.5383 93.7844 39.6342 95.5367 39.2448C96.1694 39.1042 100.078 38.7478 98.5543 40.4313C97.6566 41.4235 95.6958 42.3264 94.432 42.7022C93.4407 42.9969 91.5482 43.5349 90.5654 43.0295C90.0132 42.7455 89.8441 41.7915 89.5629 41.2803C89.2056 40.6306 88.8836 40.032 88.448 39.4289C87.8521 38.6038 86.0659 36.2039 84.8678 36.5034C83.6279 36.8133 85.0631 39.4418 85.369 39.9403C86.2575 41.3882 87.6679 42.0777 88.9083 43.1113" stroke="#C6D9AD" stroke-width="2" stroke-linecap="round"/>
<path d="M91.7831 48.4113C93.0331 50.496 94.1606 52.7773 95.6284 54.7279C95.9126 55.1055 96.2299 55.451 96.5062 55.8347C96.8268 56.28 97.3117 56.5711 97.6417 56.9988C97.9569 57.4074 98.3495 58.006 98.7867 58.2774C99.2313 58.5534 99.8128 58.7713 100.285 59.0073C100.739 59.2342 101.286 59.0798 101.764 59.1647C102.162 59.2355 102.719 59.3219 103.114 59.1838C103.652 58.9954 103.72 58.8015 103.72 58.2678C103.72 57.6992 103.689 57.2685 103.395 56.7602C102.805 55.7392 102.166 54.9107 101.334 54.06C100.919 53.6354 100.504 53.305 100.027 52.9579C99.4562 52.5427 99.0006 51.9969 98.4336 51.5887C97.9107 51.2122 97.2685 51.0312 96.7447 50.644C96.3093 50.3222 95.8104 50.0674 95.3469 49.7853C94.8978 49.5119 94.4254 49.3524 93.93 49.1842C93.3642 48.992 92.8752 48.6527 92.3842 48.3254" stroke="#C6D9AD" stroke-width="2" stroke-linecap="round"/>
<path d="M91.9548 47.8102C93.339 45.8327 95.7594 44.8525 97.7896 43.7359C98.7172 43.2257 99.7592 42.8876 100.714 42.4191C101.447 42.0597 102.704 41.6895 102.412 43.0012C102.177 44.0597 101.416 44.278 100.628 44.8904C99.8612 45.4869 98.7729 45.963 97.8802 46.3455C96.9663 46.7372 95.9895 47.0238 95.0654 47.3808C94.2333 47.7023 93.5225 48.0928 92.6418 48.2395" stroke="#C6D9AD" stroke-width="2" stroke-linecap="round"/>
</svg>
