<svg width="79" height="79" viewBox="0 0 79 79" fill="none" xmlns="http://www.w3.org/2000/svg">
<g clip-path="url(#clip0_44_8)">
<path d="M1.7934 53.9468V52.9674L1.99908 53.1241L2.10681 53.2122C2.30238 52.9824 2.53798 52.79 2.80219 52.6442L29.5889 37.1794C30.8034 36.4742 32.6447 36.3959 33.7024 37.0129L74.5241 60.5774C74.6682 60.6598 74.8 60.762 74.9158 60.881L75.239 60.597V61.5764C75.2586 62.0465 74.9158 62.5558 74.2302 62.9475L47.4435 78.4221C46.229 79.1175 44.3878 79.1959 43.33 78.5887L2.50836 55.0144C2.01866 54.7303 1.78361 54.3484 1.80319 53.937L1.7934 53.9468ZM32.3411 0.716098L33.1834 0.157837C33.5261 -0.0674261 33.9767 -0.057632 34.4762 0.226396L75.2978 23.8007C76.3556 24.4079 77.2076 26.0435 77.2076 27.4441V58.3737C77.2076 59.0887 76.9824 59.6078 76.62 59.8624V59.8722L76.571 59.9016L75.67 60.4892L75.4153 59.8722L75.2978 59.8134L34.4762 36.2391C33.4184 35.6319 32.5663 33.9963 32.5663 32.5958V1.66612C32.5673 1.49199 32.5837 1.31828 32.6153 1.14704L32.3411 0.716098Z" fill="#C5C5D1"/>
<path d="M33.5653 36.8464L74.3967 60.4305C75.4447 61.0181 76.287 60.3815 76.287 58.9614V28.0415C76.287 26.641 75.4349 25.0054 74.3869 24.3981L33.5653 0.833638C32.5173 0.226407 31.6555 0.872814 31.6555 2.27336V33.203C31.6555 34.6133 32.5173 36.2392 33.5653 36.8464Z" fill="#232323"/>
<path d="M33.3988 33.8004L74.5632 57.5706V27.4441L33.3988 3.68372V33.7907V33.8004Z" fill="#333333"/>
<path d="M2.5084 54.0056L43.3398 77.5799C44.3878 78.1871 46.2291 78.1088 47.4533 77.4134L74.2303 61.9388C75.4448 61.2434 75.5819 60.1758 74.5241 59.5686L33.7025 36.0041C32.6447 35.3969 30.8034 35.4654 29.589 36.1706L2.80222 51.6452C1.58776 52.3308 1.46043 53.4081 2.5084 54.0056Z" fill="#EAEAEF"/>
<path d="M16.3572 60.0779L32.8308 69.5781C33.3107 69.8621 34.1432 69.823 34.6916 69.5096L43.4573 64.446C44.0058 64.1326 44.0646 63.6527 43.5944 63.3687L27.1208 53.8685C26.6311 53.5844 25.8084 53.6236 25.26 53.937L16.4845 59.0005C15.936 59.3237 15.8772 59.7939 16.3572 60.0779Z" fill="#D5D5E2"/>
<path d="M19.0407 48.1389L53.506 68.0306C53.9957 68.3147 54.838 68.2755 55.3963 67.9523L69.4703 59.8232C70.0286 59.5 70.0873 59.0201 69.5976 58.7361L35.1519 38.8444C34.6622 38.5603 33.8199 38.5995 33.2617 38.9227L19.1876 47.0518C18.6294 47.375 18.5706 47.8647 19.0505 48.1389H19.0407Z" fill="#D0D0DD"/>
<path d="M32.3313 40.2449L67.0709 60.3031C67.1733 60.3494 67.2853 60.3709 67.3976 60.3658C67.5099 60.3606 67.6194 60.3291 67.7173 60.2737L68.9513 59.5588C69.1472 59.4608 69.1668 59.2845 69.0003 59.1866L34.2608 39.1284C34.1583 39.0821 34.0464 39.0606 33.9341 39.0657C33.8217 39.0708 33.7122 39.1024 33.6144 39.1577L32.3803 39.8727C32.1844 39.9707 32.1648 40.1469 32.3313 40.2449Z" fill="#333333"/>
<path d="M20.5882 63.5841L26.9152 67.2373C27.4049 67.5213 27.4049 67.9817 26.9152 68.2657L26.8564 68.2951L18.747 63.6135L18.8057 63.5841C19.2954 63.2903 20.0887 63.2903 20.5784 63.5841H20.5882Z" fill="#C5C5D1"/>
<path d="M28.9426 47.8451H28.9524V47.8647H28.9426L28.9524 47.8745V48.0704L27.1503 49.1183L22.2631 46.2976V46.092H22.2728V46.0626L24.075 45.0146L28.9524 47.8353L28.9426 47.8451ZM55.1907 60.1562L57.0026 61.214V61.2336H56.9928V61.4295L55.1907 62.4774L53.3886 61.4393V61.2336L53.3984 61.2238V61.2042L55.1907 60.1562ZM54.1427 65.3961L55.9448 66.4342V66.6693L54.1427 67.7172L52.3406 66.6693V66.4342L54.1427 65.3863V65.3961ZM51.8411 64.0739L53.653 65.112V65.1316L53.6432 65.1414V65.3471L51.8509 66.3853L50.039 65.3471V65.1414L50.0488 65.1316V65.112L51.8411 64.0641V64.0739ZM49.4416 62.6831L51.2437 63.7213V63.9563L49.4416 65.0043L47.6395 63.9563V63.7213L49.4416 62.6831ZM47.0812 61.3217L48.9029 62.3599V62.3795L48.8931 62.3893V62.5852L47.091 63.6331L45.2791 62.5852V62.3893H45.2889V62.3599L47.0714 61.3119L47.0812 61.3217ZM28.3941 50.5287L30.1962 51.5668V51.5864L30.1864 51.5962V51.8019L28.3941 52.8499L26.5822 51.8019V51.5962H26.592V51.5668L28.3941 50.5189V50.5287ZM26.1317 49.2261L27.9436 50.2642V50.2838L27.9338 50.2936V50.4895L26.1317 51.5375L24.3296 50.4895V50.2936H24.3394V50.2642L26.1317 49.2163V49.2261ZM23.8301 47.8941L25.6322 48.9322V49.1673L23.8301 50.2153L22.028 49.1673V48.9322L23.8301 47.8941ZM30.7153 51.8705L46.5817 61.0279V61.263L44.7796 62.3109L28.9132 53.1437V52.9086L30.7153 51.8607V51.8705ZM50.372 57.3747L52.1741 58.4129V58.4325L52.1643 58.4423H52.1741V58.6479L50.372 59.6861L48.5699 58.6479V58.4129L50.372 57.3649V57.3747ZM47.9627 55.984L49.7648 57.0221V57.0417L49.755 57.0515V57.2572L47.9627 58.2954L46.1508 57.2572V57.0515L46.1605 57.0417V57.0221L47.9627 55.9742V55.984ZM45.5435 54.5932L47.3456 55.6314V55.8566L45.5435 56.9046L43.7414 55.8664V55.6608L43.7512 55.651H43.7414V55.6314L45.5435 54.5932ZM43.1342 53.1927L44.9363 54.2406V54.4561L43.1342 55.5041L41.3321 54.4659V54.2308L43.1244 53.1829L43.1342 53.1927ZM40.7248 51.8117L42.527 52.8401V52.8597L42.5172 52.8695V53.0751L40.7248 54.1231L38.9227 53.0751V52.8401L40.7248 51.7921V51.8117ZM38.3057 50.4111L40.1176 51.4493V51.4689L40.1078 51.4787V51.6844L38.3155 52.7323L36.5036 51.6844V51.4787H36.5134V51.4493L38.3057 50.4013V50.4111ZM35.8964 49.0204L37.6985 50.0488V50.2936L35.8964 51.3318L34.0943 50.2936V50.0879H34.1041L34.0943 50.0781V50.0586L35.8964 49.0106V49.0204ZM33.487 47.6296L35.2891 48.6678V48.8931L33.487 49.941L31.6849 48.9029V48.658L33.487 47.6198V47.6296ZM51.2339 60.7047L53.036 61.7527V61.9779L51.2339 63.0259L49.4318 61.9877V61.7429L51.2339 60.6949V60.7047ZM48.8245 59.3139L50.6266 60.3619V60.3717L50.6168 60.3815L50.6266 60.3913V60.5872L48.8245 61.6351L47.0224 60.5872V60.3521L48.8245 59.3041V59.3139ZM46.4152 57.9232L48.2173 58.9614V58.9809L48.2075 58.9907V59.1964L46.4152 60.2444L44.6033 59.1964V58.9907H44.6131V58.9614L46.4152 57.9134V57.9232ZM44.0059 56.5324L45.808 57.5706H45.7982V57.8057L43.9961 58.8438L42.194 57.8057V57.6H42.2038L42.194 57.5804V57.5706L43.9961 56.5226L44.0059 56.5324ZM41.5867 55.1417L43.3888 56.1798V56.4051L41.5867 57.4531L39.7846 56.4149V56.1701L41.5867 55.1417ZM39.1774 53.7509L40.9697 54.7891V54.8087H40.9599L40.9697 54.8185V55.0143L39.1676 56.0623L37.3655 55.0241V54.7793L39.1676 53.7411L39.1774 53.7509ZM36.7583 52.3504L38.5702 53.3983V53.4179H38.5604V53.6236L36.768 54.6716L34.9561 53.6334V53.4277L34.9659 53.4179V53.3983L36.7583 52.3504ZM34.3489 50.9596L36.151 52.0076V52.2328L34.3489 53.2808L32.5468 52.2328V52.0272H32.5566L32.5468 52.0174V51.9978L34.3489 50.9498V50.9596ZM31.9396 49.5591L33.7417 50.607V50.8323L31.9396 51.8803L30.1375 50.8323V50.607L31.9396 49.5591ZM29.5302 48.1781L31.3323 49.2163V49.2359L31.3226 49.2457V49.4513L29.5302 50.4895L27.7183 49.4513V49.2457L27.7281 49.2359V49.2163L29.5302 48.1683V48.1781ZM31.0777 46.2291L32.8798 47.277V47.2966H32.87V47.5023L31.0777 48.5503L29.2658 47.5121V47.3064L29.2756 47.2966V47.2672L31.0777 46.2291ZM30.0983 45.6708L30.4705 45.8863V45.8961L30.4509 45.9059L30.4705 45.9157V46.1116L28.6586 47.1595L28.2962 46.9538L26.8565 46.1116L24.7997 44.9265V44.6816L26.6018 43.6337L28.6586 44.8285L30.1081 45.661L30.0983 45.6708ZM30.7839 43.2615V43.4867L28.9916 44.5347L27.1895 43.4867V43.2517L28.9818 42.2135L30.7839 43.2517V43.2615ZM19.6774 47.5807L21.4599 46.5229L23.2718 47.5709V47.5905H23.262V47.7961L21.4599 48.8441L19.6578 47.8059V47.61L19.6676 47.6002V47.5807H19.6774ZM58.4521 61.5568V61.3315L60.2542 60.2836L63.4177 62.115V62.3501L61.6156 63.3981L58.4521 61.5666V61.5568ZM55.7195 62.7615V62.5362L57.5217 61.498L61.0279 63.5254V63.7604L59.2258 64.7986L55.7195 62.781V62.7615ZM51.8901 63.3883V63.1728L53.6922 62.1248L58.5696 64.9455V65.1708L56.7675 66.2188L51.8901 63.3981V63.3883ZM57.9134 61.2434L56.1015 60.2052V60.0093H56.1113V59.9799L57.9036 58.932L59.7155 59.9701V59.9897L59.7057 59.9995V60.215L57.9036 61.2532L57.9134 61.2434ZM55.4943 59.8526L53.6922 58.8144V58.6186L53.702 58.6088H53.6922V58.5794L55.4943 57.5314L57.2964 58.5794V58.8144L55.4943 59.8624V59.8526ZM53.0849 58.4619L51.2828 57.4237V57.1984L53.0849 56.1505L54.8773 57.1984V57.4237L53.0752 58.4717L53.0849 58.4619ZM50.6658 57.0711L48.8637 56.0231V55.8371L48.8735 55.8175V55.7979L50.6658 54.7499L52.4679 55.7881V55.8077L52.4581 55.8175V56.0231L50.6658 57.0711ZM48.2565 55.6803L46.4544 54.6324V54.4365H46.4642V54.4071L48.2565 53.3592L50.0684 54.3973V54.4169L50.0586 54.4267V54.6422L48.2565 55.6901V55.6803ZM45.8471 54.2896L44.045 53.2416V53.0164L45.8471 51.9684L47.6492 53.0066V53.2514L45.8471 54.2896ZM43.4378 52.889L41.6357 51.8509V51.6158L43.4378 50.5776L45.2399 51.6158V51.6354H45.2301L45.2399 51.655V51.8509L43.4378 52.8988V52.889ZM41.0285 51.4983L39.2166 50.4601V50.2642L39.2264 50.2544V50.2251L41.0285 49.1771L42.8306 50.2446V50.2642H42.8208V50.4601L41.0285 51.5081V51.4983ZM38.6191 50.1075L36.8072 49.0596V48.8735L36.817 48.8637L36.8072 48.8539V48.8343L38.6093 47.7961L40.4212 48.8441H40.4114V49.0694L38.6093 50.1173L38.6191 50.1075ZM36.2 48.7168L34.3979 47.6688V47.4435L36.2 46.3956L38.0021 47.4338V47.6786L36.2 48.7266V48.7168ZM33.7907 47.3162L31.9886 46.278V46.0528L33.7907 45.0048L35.5928 46.043V46.0626L35.583 46.0724V46.2878L33.7907 47.326V47.3162ZM31.3715 45.9353L29.5694 44.8873V44.6914L29.5792 44.6816V44.662L31.3715 43.6239L33.1834 44.662V44.6816L33.1736 44.6914V44.8971L31.3715 45.9353ZM50.9792 60.0387V59.8036L52.7813 58.7655L54.5834 59.8036V60.0387L52.7813 61.0867L50.9792 60.0387ZM32.9386 43.8197L29.7653 41.9883V41.7924H29.7751L29.7653 41.7826V41.763L31.5674 40.715L34.7407 42.5367H34.7309V42.7816L32.9288 43.8295L32.9386 43.8197ZM35.2794 45.1713L33.4772 44.1331V43.8981L35.2794 42.8501L37.0815 43.8981V44.1331L35.2794 45.1811V45.1713ZM37.6887 46.5621L35.8866 45.5239V45.328L35.8964 45.3182H35.8866V45.2889L37.6887 44.2507L39.4908 45.2889V45.5337L37.6887 46.5719V46.5621ZM40.098 47.9528L38.2959 46.9147V46.7188H38.3057V46.6894L40.0882 45.6414L41.9001 46.6796V46.6992L41.8903 46.709V46.9147L40.0882 47.9528H40.098ZM42.5172 49.3534L40.7151 48.3054V48.09L42.5172 47.042L44.3193 48.0802V48.0997L44.3095 48.1095L44.3193 48.1193V48.3152L42.5172 49.3632V49.3534ZM44.9265 50.7343L43.1244 49.6962V49.4709L44.9265 48.423L46.7286 49.4709V49.706L44.9265 50.7539V50.7343ZM47.3358 52.1349L45.5337 51.0967V50.9008L45.5435 50.8911V50.8617L47.3358 49.8235L49.1379 50.8715V51.0967L47.3358 52.1447V52.1349ZM49.755 53.5257L47.9431 52.4875V52.3014L47.9529 52.2916V52.2524L49.7452 51.2241L51.5473 52.2622V52.2818H51.5375V52.4875L49.7452 53.5354L49.755 53.5257ZM52.1643 54.9262L50.3622 53.8782V53.653L52.1643 52.605L53.9664 53.6432V53.6628L53.9566 53.6726H53.9664V53.888L52.1643 54.9262ZM54.5834 56.317L52.7715 55.269V55.0437L54.5736 53.9958L56.3757 55.0339V55.2788L54.5834 56.317ZM56.983 57.7077L55.1809 56.6598V56.4737L55.1907 56.4541V56.4345L56.983 55.3865L58.7949 56.4247V56.4443L58.7851 56.4541V56.6598L56.983 57.7077ZM59.4021 59.0985L57.5902 58.0603H57.6V57.8252L59.4021 56.7773L61.2042 57.8252V57.8448H61.1944V58.0603L59.4021 59.1083V59.0985ZM61.8114 60.4892L60.0093 59.4511V59.216L61.8114 58.1778L63.6136 59.2258V59.4511L61.8114 60.499V60.4892ZM62.4481 60.8222V60.597L64.2502 59.549L66.0425 60.6068V60.6263H66.0327L66.0425 60.6361V60.8222L64.2404 61.8702L62.4383 60.832L62.4481 60.8222Z" fill="#262628"/>
<path d="M60.264 60.2933L63.4177 62.1248L61.6156 63.163L58.4521 61.3413L60.2542 60.2933H60.264ZM57.5217 61.5078L61.0279 63.5254L59.2258 64.5733L55.7195 62.546L57.5217 61.498V61.5078ZM53.6922 62.1248L58.5696 64.9455L56.7675 65.9837L51.8901 63.1728L53.6922 62.1248ZM28.9524 47.8451L27.1503 48.8832L22.2631 46.0626L24.075 45.0244L28.9524 47.8451ZM57.9134 58.9417L59.7155 59.9799L57.9036 61.0181L56.1015 59.9799L57.9036 58.9417H57.9134ZM55.4943 57.5412L57.2964 58.5892L55.4943 59.6273L53.6922 58.5892L55.4943 57.5412ZM53.0849 56.1504L54.8773 57.1984L53.0752 58.2366L51.273 57.1984L53.0752 56.1504H53.0849ZM50.6658 54.7597L52.4777 55.7979L50.6756 56.8458L48.8637 55.8076L50.6756 54.7597H50.6658ZM48.2565 53.3689L50.0782 54.4071L48.2663 55.4551L46.4642 54.4071L48.2663 53.3689H48.2565ZM45.8471 51.9782L47.6492 53.0163L45.8471 54.0643L44.045 53.0163L45.8471 51.9782ZM43.4378 50.5874L45.2399 51.6158L43.4378 52.654L41.6357 51.6158L43.4378 50.5776V50.5874ZM41.0285 49.1869L42.8306 50.2446L41.0285 51.2828L39.2068 50.2446L41.0089 49.1967L41.0285 49.1869ZM38.6191 47.7961L40.4212 48.8441L38.6093 49.8822L36.8072 48.8441L38.6093 47.7961H38.6191ZM36.2 46.4054L38.0021 47.4435L36.2 48.4915L34.3979 47.4435L36.2 46.4054ZM33.7907 45.0146L35.583 46.0528L33.7809 47.1007L31.9788 46.0528L33.7809 45.0146H33.7907ZM31.3715 43.6238L33.1834 44.662L31.3715 45.7002L29.5694 44.662L31.3715 43.6238ZM55.1907 60.1562L57.0026 61.214L55.1907 62.2521L53.3886 61.214L55.1907 60.166V60.1562ZM54.1427 67.4822L52.3406 66.4342L54.1427 65.396L55.9448 66.4342L54.1427 67.4822ZM51.8411 66.1502L50.039 65.112L51.8509 64.0738L53.653 65.112L51.8509 66.1502H51.8411ZM49.4416 64.7692L47.6395 63.7212L49.4416 62.6831L51.2437 63.7212L49.4416 64.7692ZM47.0812 63.4078L45.2791 62.3599L47.0812 61.3217L48.8931 62.3599L47.0812 63.4078ZM28.3941 52.6148L26.5822 51.5668L28.3941 50.5287L30.1962 51.5668L28.3941 52.6148ZM26.1317 51.3122L24.3296 50.2642L26.1317 49.226L27.9436 50.2642L26.1317 51.3122ZM23.8301 49.9802L22.028 48.9322L23.8301 47.894L25.6322 48.9322L23.8301 49.9802ZM21.4795 48.6188L19.6676 47.5806L21.4795 46.5229L23.2914 47.5708L21.4795 48.609V48.6188ZM44.7796 62.0758L28.9132 52.9184L30.7153 51.8704L46.5817 61.0279L44.7796 62.0758ZM52.7813 58.7655L54.5834 59.8036L52.7813 60.8516L50.9792 59.8036L52.7813 58.7655ZM50.372 57.3747L52.1741 58.4129L50.372 59.4608L48.5699 58.4129L50.372 57.3747ZM47.9627 55.9839L49.7648 57.0221L47.9627 58.0603L46.1508 57.0221L47.9627 55.9839ZM45.5435 54.5932L47.3456 55.6314L45.5435 56.6695L43.7414 55.6314L45.5435 54.5932ZM43.1342 53.1926L44.9363 54.2406L43.1342 55.2788L41.3321 54.2406L43.1244 53.1828L43.1342 53.1926ZM40.7249 51.8117L42.527 52.84L40.7249 53.888L38.9227 52.84L40.7249 51.8019V51.8117ZM38.3057 50.4111L40.1176 51.4493L38.3155 52.4973L36.5036 51.4493L38.3057 50.4111ZM35.8964 49.0204L37.6985 50.0487L35.8964 51.0869L34.0943 50.0487L35.8964 49.0106V49.0204ZM33.487 47.6296L35.2892 48.6678L33.487 49.7059L31.6849 48.6678L33.487 47.6296ZM51.2339 60.7047L53.036 61.7526L51.2339 62.7908L49.4318 61.7526L51.2339 60.7047ZM48.8245 59.3139L50.6266 60.3619L48.8245 61.4001L47.0224 60.3619L48.8245 59.3139ZM46.4152 57.9232L48.2173 58.9613L46.4152 60.0093L44.5935 58.9613L46.3956 57.9232H46.4152ZM44.0059 56.5324L45.808 57.5706L43.9961 58.6185L42.194 57.5706L43.9961 56.5324H44.0059ZM41.5867 55.1417L43.3888 56.1798L41.5867 57.218L39.7846 56.1798L41.5867 55.1417ZM39.1774 53.7509L40.9697 54.7891L39.1676 55.8272L37.3655 54.7891L39.1676 53.7509H39.1774ZM36.7583 52.3503L38.5702 53.3983L36.7681 54.4365L34.9562 53.3983L36.7583 52.3503ZM34.3489 50.9596L36.151 52.0076L34.3489 53.0555L32.5468 52.0076L34.3489 50.9694V50.9596ZM31.9396 49.559L33.7417 50.607L31.9396 51.655L30.1375 50.607L31.9396 49.5688V49.559ZM29.5302 48.1781L31.3324 49.2162L29.5302 50.2544L27.7183 49.2162L29.5302 48.1781ZM31.0777 46.2291L32.8798 47.277L31.0777 48.3152L29.2658 47.277L31.0777 46.2291ZM26.8663 45.8863L24.7899 44.6914L26.6018 43.6434L28.6586 44.8383L30.1081 45.6708L30.4705 45.8863L28.6586 46.9244L28.2962 46.7188L26.8565 45.8863H26.8663ZM28.9916 42.2135L30.7839 43.2517L28.9818 44.2996L27.1797 43.2517L28.9818 42.2135H28.9916ZM31.5674 40.7248L34.7407 42.5465L32.9288 43.5945L29.7653 41.763L31.5674 40.7248ZM35.2794 42.8599L37.0815 43.9079L35.2794 44.946L33.4773 43.9079L35.2794 42.8599ZM37.6887 44.2605L39.5006 45.2986L37.6985 46.3368L35.8964 45.2986L37.6985 44.2605H37.6887ZM40.098 45.6414L41.9099 46.6894L40.098 47.7373L38.2959 46.6894L40.098 45.6512V45.6414ZM42.5172 47.042L44.3193 48.0899L42.5172 49.1379L40.7151 48.0899L42.5172 47.0518V47.042ZM44.9265 48.4327L46.7286 49.4807L44.9265 50.5189L43.1244 49.4807L44.9265 48.4327ZM47.3358 49.8235L49.1379 50.8714L47.3358 51.9096L45.5337 50.8714L47.3358 49.8235ZM49.755 51.224L51.5473 52.2622L49.7452 53.3004L47.9333 52.2622L49.7452 51.224H49.755ZM52.1643 52.6148L53.9664 53.653L52.1643 54.7009L50.3622 53.653L52.1643 52.6148ZM54.5834 54.0055L56.366 55.0437L54.5638 56.0917L52.7617 55.0437L54.5638 54.0055H54.5834ZM56.983 55.3963L58.7949 56.4345L56.983 57.4824L55.1809 56.4443L56.983 55.3963ZM59.4021 56.7871L61.2042 57.835L59.4021 58.8732L57.5902 57.835L59.4021 56.7871ZM61.8114 58.1778L63.6136 59.2258L61.8114 60.2639L60.0093 59.2258L61.8114 58.1778ZM64.2502 59.5588L66.0425 60.6067L64.2404 61.6449L62.4383 60.6067L64.2404 59.5588H64.2502Z" fill="#464649"/>
<path d="M69.0101 57.0809L35.6613 37.8258L36.2587 37.483L69.6173 56.7381L69.0101 57.0809Z" fill="#7D7D89"/>
<path d="M35.7864 12.4209C35.6018 12.4209 35.4521 12.361 35.3372 12.241C35.2247 12.1211 35.1684 11.9586 35.1684 11.7535V11.2268C35.1684 11.0196 35.2247 10.8561 35.3372 10.7361C35.4498 10.6161 35.5996 10.5562 35.7864 10.5562C35.9395 10.5562 36.0623 10.5965 36.1546 10.6772C36.2469 10.7579 36.293 10.8659 36.293 11.0011L36.2322 10.9324H36.2998L36.293 10.5234V10H36.597V12.3882H36.293V12.0447H36.2322L36.293 11.976C36.293 12.1134 36.2469 12.2225 36.1546 12.3032C36.0623 12.3817 35.9395 12.4209 35.7864 12.4209ZM35.8878 12.1658C36.0138 12.1658 36.1129 12.1276 36.185 12.0512C36.257 11.9749 36.293 11.8691 36.293 11.7339V11.2432C36.293 11.108 36.257 11.0022 36.185 10.9258C36.1129 10.8495 36.0138 10.8113 35.8878 10.8113C35.7594 10.8113 35.6581 10.8484 35.5838 10.9226C35.5095 10.9967 35.4723 11.1036 35.4723 11.2432V11.7339C35.4723 11.8735 35.5095 11.9804 35.5838 12.0545C35.6581 12.1287 35.7594 12.1658 35.8878 12.1658Z" fill="#5081FF"/>
<path d="M38.0833 13.2519C37.9347 13.2519 37.8063 13.2246 37.6983 13.1701C37.5902 13.1156 37.5057 13.0371 37.4449 12.9346C37.3864 12.8299 37.3571 12.7066 37.3571 12.5649V12.0872C37.3571 11.9433 37.3864 11.82 37.4449 11.7175C37.5057 11.615 37.5902 11.5365 37.6983 11.482C37.8063 11.4275 37.9347 11.4002 38.0833 11.4002C38.2319 11.4002 38.3602 11.4275 38.4683 11.482C38.5764 11.5365 38.6597 11.615 38.7182 11.7175C38.779 11.82 38.8094 11.9422 38.8094 12.084V12.5649C38.8094 12.7066 38.779 12.8299 38.7182 12.9346C38.6597 13.0371 38.5764 13.1156 38.4683 13.1701C38.3602 13.2246 38.2319 13.2519 38.0833 13.2519ZM38.0833 12.9902C38.2161 12.9902 38.3197 12.9542 38.394 12.8822C38.4683 12.8102 38.5055 12.7045 38.5055 12.5649V12.0872C38.5055 11.9476 38.4683 11.8419 38.394 11.7699C38.3197 11.6979 38.2161 11.6619 38.0833 11.6619C37.9527 11.6619 37.8491 11.6979 37.7726 11.7699C37.6983 11.8419 37.6611 11.9476 37.6611 12.0872V12.5649C37.6611 12.7045 37.6983 12.8102 37.7726 12.8822C37.8491 12.9542 37.9527 12.9902 38.0833 12.9902Z" fill="#5081FF"/>
<path d="M40.618 14.8451C40.4852 14.8451 40.3703 14.8233 40.2735 14.7797C40.1789 14.7383 40.1069 14.6761 40.0574 14.5932C40.0078 14.5125 39.9864 14.4155 39.9932 14.3021L40.027 13.7655C40.0337 13.6499 40.0157 13.5671 39.9729 13.5169C39.9301 13.4645 39.8356 13.4384 39.6892 13.4384H39.3177V13.1766H39.6892C39.8356 13.1766 39.9301 13.1516 39.9729 13.1014C40.0157 13.0491 40.0337 12.9651 40.027 12.8495L39.9932 12.313C39.9864 12.1974 40.0078 12.0992 40.0574 12.0185C40.1069 11.9378 40.1789 11.8768 40.2735 11.8353C40.3703 11.7917 40.4852 11.7699 40.618 11.7699H40.77V12.0316H40.618C40.5122 12.0316 40.4311 12.0556 40.3748 12.1036C40.3185 12.1494 40.2926 12.2192 40.2971 12.313L40.3309 12.8495C40.3399 12.9913 40.305 13.1047 40.2262 13.1897C40.1474 13.2726 40.036 13.3141 39.8919 13.3141V13.2977C40.0337 13.2977 40.144 13.3402 40.2228 13.4253C40.3039 13.5103 40.3399 13.6238 40.3309 13.7655L40.2971 14.3021C40.2926 14.3958 40.3185 14.4656 40.3748 14.5114C40.4311 14.5594 40.5122 14.5834 40.618 14.5834H40.77V14.8451H40.618Z" fill="white"/>
<path d="M38.404 18.7482C38.2959 18.7482 38.2014 18.7275 38.1203 18.6861C38.0393 18.6446 37.9762 18.5857 37.9312 18.5094C37.8862 18.4331 37.8636 18.3436 37.8636 18.2411V16.6283H37.2389V16.36H38.1676V18.2411C38.1676 18.3153 38.189 18.3742 38.2318 18.4178C38.2745 18.4592 38.332 18.4799 38.404 18.4799H38.9951V18.7482H38.404Z" fill="#FF0000"/>
<path d="M40.1113 19.6802C39.9627 19.6802 39.8343 19.6529 39.7263 19.5984C39.6182 19.5439 39.5338 19.4654 39.473 19.3629C39.4144 19.2582 39.3852 19.135 39.3852 18.9932V18.5156C39.3852 18.3716 39.4144 18.2484 39.473 18.1459C39.5338 18.0434 39.6182 17.9649 39.7263 17.9103C39.8343 17.8558 39.9627 17.8285 40.1113 17.8285C40.2599 17.8285 40.3882 17.8558 40.4963 17.9103C40.6044 17.9649 40.6877 18.0434 40.7462 18.1459C40.807 18.2484 40.8374 18.3705 40.8374 18.5123V18.9932C40.8374 19.135 40.807 19.2582 40.7462 19.3629C40.6877 19.4654 40.6044 19.5439 40.4963 19.5984C40.3882 19.6529 40.2599 19.6802 40.1113 19.6802ZM40.1113 19.4185C40.2441 19.4185 40.3477 19.3825 40.422 19.3105C40.4963 19.2385 40.5334 19.1328 40.5334 18.9932V18.5156C40.5334 18.376 40.4963 18.2702 40.422 18.1982C40.3477 18.1262 40.2441 18.0903 40.1113 18.0903C39.9807 18.0903 39.8771 18.1262 39.8006 18.1982C39.7263 18.2702 39.6891 18.376 39.6891 18.5156V18.9932C39.6891 19.1328 39.7263 19.2385 39.8006 19.3105C39.8771 19.3825 39.9807 19.4185 40.1113 19.4185Z" fill="#FF0000"/>
<path d="M41.799 20.721L41.4883 19.8213L41.1776 18.9217H41.4883L41.6943 19.5269L41.9003 20.1321C41.9251 20.2041 41.9476 20.2739 41.9679 20.3415C41.9881 20.4069 42.0028 20.4582 42.0118 20.4953C42.023 20.4582 42.0388 20.4069 42.0591 20.3415C42.0793 20.2739 42.1007 20.2041 42.1232 20.1321L42.3242 19.5269L42.5251 18.9217H42.8324L42.211 20.721H41.799Z" fill="#FF0000"/>
<path d="M43.8283 21.4243C43.6819 21.4243 43.5536 21.396 43.4432 21.3393C43.3352 21.2826 43.2507 21.203 43.1899 21.1005C43.1314 20.9958 43.1021 20.8747 43.1021 20.7373V20.2466C43.1021 20.107 43.1314 19.986 43.1899 19.8835C43.2507 19.781 43.3352 19.7013 43.4432 19.6446C43.5536 19.5879 43.6819 19.5596 43.8283 19.5596C43.9746 19.5596 44.1018 19.5879 44.2099 19.6446C44.3202 19.7013 44.4046 19.781 44.4632 19.8835C44.524 19.986 44.5544 20.107 44.5544 20.2466V20.564H43.3993V20.7373C43.3993 20.8791 43.4365 20.9881 43.5108 21.0645C43.5851 21.1386 43.6909 21.1757 43.8283 21.1757C43.9453 21.1757 44.0399 21.1561 44.1119 21.1168C44.184 21.0754 44.2279 21.0143 44.2437 20.9336H44.5476C44.5273 21.0841 44.4508 21.2041 44.3179 21.2935C44.1874 21.3807 44.0241 21.4243 43.8283 21.4243ZM44.2572 20.3677V20.2466C44.2572 20.1049 44.22 19.9958 44.1457 19.9195C44.0737 19.8431 43.9678 19.8049 43.8283 19.8049C43.6909 19.8049 43.5851 19.8431 43.5108 19.9195C43.4365 19.9958 43.3993 20.1049 43.3993 20.2466V20.3415H44.2808L44.2572 20.3677Z" fill="#FF0000"/>
<path d="M45.8636 23.3178C45.5438 23.2415 45.2951 23.091 45.1172 22.8664C44.9393 22.6417 44.8504 22.3669 44.8504 22.0419V21.4531C44.8504 21.2393 44.8909 21.0463 44.972 20.874C45.0553 20.6995 45.1724 20.5523 45.3232 20.4323C45.4763 20.3124 45.6564 20.2273 45.8636 20.1772V20.4552C45.7195 20.488 45.5945 20.5512 45.4887 20.645C45.3828 20.7366 45.3007 20.8511 45.2422 20.9885C45.1836 21.1259 45.1544 21.2808 45.1544 21.4531V22.0419C45.1544 22.2099 45.1825 22.3625 45.2388 22.4999C45.2973 22.6374 45.3795 22.7518 45.4853 22.8434C45.5934 22.9329 45.7195 22.9939 45.8636 23.0266V23.3178Z" fill="white"/>
<path d="M46.4655 23.7856V23.4945C46.6119 23.4617 46.7379 23.4007 46.8437 23.3113C46.9496 23.2197 47.0306 23.1052 47.0869 22.9678C47.1455 22.8304 47.1747 22.6777 47.1747 22.5098V21.9209C47.1747 21.7486 47.1455 21.5937 47.0869 21.4563C47.0284 21.3189 46.9462 21.2044 46.8404 21.1128C46.7345 21.019 46.6096 20.9558 46.4655 20.9231V20.645C46.6749 20.6952 46.855 20.7802 47.0059 20.9002C47.1567 21.0201 47.2727 21.1674 47.3537 21.3418C47.437 21.5141 47.4787 21.7072 47.4787 21.9209V22.5098C47.4787 22.8347 47.3897 23.1095 47.2119 23.3342C47.034 23.5588 46.7852 23.7093 46.4655 23.7856Z" fill="white"/>
<path d="M48.0005 24.4374L48.2707 23.42H48.7098L48.2707 24.4374H48.0005ZM48.4058 22.5727C48.3315 22.5727 48.2707 22.5498 48.2234 22.504C48.1761 22.4582 48.1525 22.3993 48.1525 22.3273C48.1525 22.2575 48.1761 22.1997 48.2234 22.1539C48.273 22.1059 48.3337 22.0819 48.4058 22.0819H48.4733C48.5454 22.0819 48.6051 22.1059 48.6523 22.1539C48.7019 22.1997 48.7266 22.2575 48.7266 22.3273C48.7266 22.3993 48.703 22.4582 48.6557 22.504C48.6084 22.5498 48.5476 22.5727 48.4733 22.5727H48.4058Z" fill="white"/>
<path d="M35 23.9565V23.6948H35.152C35.2578 23.6948 35.3389 23.6708 35.3952 23.6228C35.4514 23.577 35.4773 23.5072 35.4728 23.4134L35.4391 22.8769C35.4301 22.7351 35.4649 22.6217 35.5437 22.5366C35.6248 22.4516 35.7362 22.4091 35.8781 22.4091V22.4254C35.734 22.4254 35.6225 22.384 35.5437 22.3011C35.4649 22.216 35.4301 22.1026 35.4391 21.9609L35.4728 21.4243C35.4773 21.3305 35.4514 21.2608 35.3952 21.215C35.3389 21.167 35.2578 21.143 35.152 21.143H35V20.8813H35.152C35.2848 20.8813 35.3985 20.9031 35.4931 20.9467C35.5899 20.9881 35.6631 21.0492 35.7126 21.1299C35.7621 21.2106 35.7835 21.3087 35.7768 21.4243L35.743 21.9609C35.7362 22.0765 35.7543 22.1604 35.797 22.2128C35.8398 22.2629 35.9344 22.288 36.0807 22.288H36.4521V22.5497H36.0807C35.9366 22.5497 35.8421 22.5759 35.797 22.6283C35.7543 22.6784 35.7362 22.7613 35.743 22.8769L35.7768 23.4134C35.7835 23.5268 35.7621 23.6239 35.7126 23.7046C35.6631 23.7874 35.5899 23.8496 35.4931 23.891C35.3985 23.9347 35.2848 23.9565 35.152 23.9565H35Z" fill="white"/>
<path d="M37.2255 24.4374L36.9283 22.6381H37.1985L37.3842 23.914C37.391 23.962 37.3977 24.0143 37.4045 24.071C37.4135 24.1256 37.4202 24.1714 37.4247 24.2084C37.4292 24.1714 37.436 24.1256 37.445 24.071C37.4563 24.0143 37.4653 23.962 37.472 23.914L37.678 22.6381H37.9685L38.1745 23.914C38.1812 23.962 38.1891 24.0143 38.1981 24.071C38.2094 24.1256 38.2173 24.1714 38.2218 24.2084C38.2263 24.1714 38.233 24.1256 38.242 24.071C38.2533 24.0143 38.2623 23.962 38.2691 23.914L38.4616 22.6381H38.7182L38.4075 24.4374H38.0732L37.8739 23.1943C37.8649 23.1332 37.8548 23.0721 37.8435 23.0111C37.8323 22.95 37.8244 22.902 37.8199 22.8671C37.8154 22.902 37.8086 22.95 37.7996 23.0111C37.7906 23.0721 37.7805 23.1332 37.7692 23.1943L37.5598 24.4374H37.2255Z" fill="#5081FF"/>
<path d="M39.1987 25.4614V23.0732H39.5026V24.0056H39.5668L39.5026 24.0743C39.5026 23.9325 39.5466 23.8235 39.6344 23.7471C39.7222 23.6686 39.8437 23.6293 39.9991 23.6293C40.186 23.6293 40.3346 23.685 40.4449 23.7962C40.5552 23.9074 40.6104 24.059 40.6104 24.2509V25.4614H40.3064V24.2836C40.3064 24.155 40.2704 24.0557 40.1983 23.9859C40.1285 23.914 40.0329 23.878 39.9113 23.878C39.7852 23.878 39.685 23.9161 39.6107 23.9925C39.5387 24.0688 39.5026 24.1768 39.5026 24.3164V25.4614H39.1987Z" fill="#5081FF"/>
<path d="M41.2451 26.9401V26.6718H41.9037V25.409L41.1025 25.2553V24.987L42.2077 25.1408V26.6718H42.8324V26.9401H41.2451ZM42.0219 24.8169C41.9476 24.8169 41.8891 24.7983 41.8463 24.7613C41.8035 24.7242 41.7821 24.674 41.7821 24.6108C41.7821 24.5454 41.8035 24.4941 41.8463 24.457C41.8891 24.4178 41.9476 24.3981 42.0219 24.3981C42.0962 24.3981 42.1547 24.4178 42.1975 24.457C42.2403 24.4941 42.2617 24.5454 42.2617 24.6108C42.2617 24.674 42.2403 24.7242 42.1975 24.7613C42.1547 24.7983 42.0962 24.8169 42.0219 24.8169Z" fill="#5081FF"/>
<path d="M44.2594 27.7972C44.1513 27.7972 44.0567 27.7765 43.9757 27.7351C43.8946 27.6936 43.8316 27.6347 43.7865 27.5584C43.7415 27.4821 43.719 27.3927 43.719 27.2901V25.6773H43.0942V25.409H44.023V27.2901C44.023 27.3643 44.0443 27.4232 44.0871 27.4668C44.1299 27.5082 44.1873 27.529 44.2594 27.529H44.8504V27.7972H44.2594Z" fill="#5081FF"/>
<path d="M46.0134 28.7198C45.867 28.7198 45.7387 28.6914 45.6284 28.6347C45.5203 28.578 45.4359 28.4984 45.3751 28.3959C45.3165 28.2912 45.2873 28.1702 45.2873 28.0328V27.542C45.2873 27.4024 45.3165 27.2814 45.3751 27.1789C45.4359 27.0764 45.5203 26.9968 45.6284 26.9401C45.7387 26.8834 45.867 26.855 46.0134 26.855C46.1598 26.855 46.2869 26.8834 46.395 26.9401C46.5053 26.9968 46.5898 27.0764 46.6483 27.1789C46.7091 27.2814 46.7395 27.4024 46.7395 27.542V27.8594H45.5845V28.0328C45.5845 28.1745 45.6216 28.2836 45.6959 28.3599C45.7702 28.4341 45.876 28.4711 46.0134 28.4711C46.1305 28.4711 46.225 28.4515 46.297 28.4122C46.3691 28.3708 46.413 28.3098 46.4288 28.2291H46.7327C46.7125 28.3795 46.6359 28.4995 46.5031 28.5889C46.3725 28.6762 46.2093 28.7198 46.0134 28.7198ZM46.4423 27.6631V27.542C46.4423 27.4003 46.4051 27.2912 46.3308 27.2149C46.2588 27.1386 46.153 27.1004 46.0134 27.1004C45.876 27.1004 45.7702 27.1386 45.6959 27.2149C45.6216 27.2912 45.5845 27.4003 45.5845 27.542V27.6369H46.4659L46.4423 27.6631Z" fill="#5081FF"/>
<path d="M48.3669 31C48.0472 30.9237 47.7984 30.7732 47.6205 30.5486C47.4427 30.3239 47.3537 30.0491 47.3537 29.7241V29.1353C47.3537 28.9215 47.3943 28.7285 47.4753 28.5562C47.5586 28.3817 47.6757 28.2345 47.8265 28.1146C47.9797 27.9946 48.1598 27.9095 48.3669 27.8594V28.1374C48.2228 28.1702 48.0979 28.2334 47.992 28.3272C47.8862 28.4188 47.804 28.5333 47.7455 28.6707C47.687 28.8081 47.6577 28.963 47.6577 29.1353V29.7241C47.6577 29.8921 47.6858 30.0447 47.7421 30.1821C47.8006 30.3196 47.8828 30.434 47.9886 30.5256C48.0967 30.6151 48.2228 30.6761 48.3669 30.7088V31Z" fill="white"/>
<path d="M49.0883 31.3882V29H49.3923V29.9324H49.4564L49.3923 30.0011C49.3923 29.8593 49.4361 29.7503 49.524 29.6739C49.6118 29.5954 49.7334 29.5561 49.8887 29.5561C50.0756 29.5561 50.2242 29.6118 50.3345 29.723C50.4449 29.8342 50.5 29.9858 50.5 30.1777V31.3882H50.1961V30.2105C50.1961 30.0818 50.16 29.9825 50.088 29.9127C50.0182 29.8408 49.9225 29.8048 49.8009 29.8048C49.6748 29.8048 49.5746 29.843 49.5003 29.9193C49.4283 29.9956 49.3923 30.1036 49.3923 30.2432V31.3882H49.0883Z" fill="#CEF3FF"/>
<path d="M51.6315 32.4618C51.4356 32.4618 51.2814 32.4138 51.1689 32.3178C51.0563 32.2197 51 32.0877 51 31.922C51 31.754 51.0563 31.6221 51.1689 31.5261C51.2814 31.4302 51.4334 31.3822 51.6248 31.3822H52.1989V31.2022C52.1989 31.091 52.164 31.006 52.0942 30.9471C52.0267 30.886 51.9299 30.8555 51.8038 30.8555C51.6935 30.8555 51.6011 30.8784 51.5268 30.9242C51.4525 30.9678 51.4098 31.0278 51.3985 31.1041H51.0946C51.1148 30.9493 51.1902 30.826 51.3208 30.7344C51.4514 30.6428 51.6146 30.597 51.8105 30.597C52.0244 30.597 52.1933 30.6505 52.3171 30.7573C52.4409 30.8642 52.5029 31.0092 52.5029 31.1924V32.4291H52.2057V32.0856H52.155L52.2057 32.0365C52.2057 32.1674 52.1528 32.2709 52.047 32.3473C51.9434 32.4236 51.8049 32.4618 51.6315 32.4618ZM51.7058 32.2295C51.8499 32.2295 51.9681 32.1946 52.0605 32.1248C52.1528 32.055 52.1989 31.9656 52.1989 31.8566V31.6014H51.6315C51.5302 31.6014 51.4503 31.6286 51.3918 31.6832C51.3332 31.7377 51.3039 31.8118 51.3039 31.9056C51.3039 32.006 51.3388 32.0856 51.4086 32.1444C51.4807 32.2012 51.5798 32.2295 51.7058 32.2295Z" fill="#CEF3FF"/>
<path d="M53 33.4661V33.1979H53.6586V31.9351H53.0844V31.6668H53.9626V33.1979H54.5874V33.4661H53ZM53.7768 31.3429C53.7025 31.3429 53.6439 31.3244 53.6012 31.2873C53.5584 31.2502 53.537 31.2001 53.537 31.1368C53.537 31.0714 53.5584 31.0201 53.6012 30.9831C53.6439 30.9438 53.7025 30.9242 53.7768 30.9242C53.8511 30.9242 53.9096 30.9438 53.9524 30.9831C53.9952 31.0201 54.0166 31.0714 54.0166 31.1368C54.0166 31.2001 53.9952 31.2502 53.9524 31.2873C53.9096 31.3244 53.8511 31.3429 53.7768 31.3429Z" fill="#CEF3FF"/>
<path d="M55.1465 34.1793V32.38H55.4437V32.7235H55.5147L55.4167 32.9361C55.4167 32.742 55.4595 32.5959 55.545 32.4978C55.6329 32.3974 55.7623 32.3473 55.9334 32.3473C56.1293 32.3473 56.2847 32.4073 56.3995 32.5272C56.5166 32.645 56.5752 32.8053 56.5752 33.0081V33.1161H56.2712V33.0343C56.2712 32.8925 56.2351 32.7846 56.1631 32.7104C56.0933 32.6341 55.9931 32.5959 55.8625 32.5959C55.7342 32.5959 55.6329 32.6341 55.5586 32.7104C55.4865 32.7868 55.4505 32.8947 55.4505 33.0343V34.1793H55.1465Z" fill="#CEF3FF"/>
<path d="M58.5602 35.2993L56.5 34.5632V34.2361L58.5602 33.5V33.7944L56.9053 34.3441C56.867 34.3571 56.831 34.367 56.7972 34.3735C56.7634 34.38 56.7375 34.3844 56.7195 34.3866V34.4095C56.7375 34.4095 56.7634 34.4128 56.7972 34.4193C56.831 34.4259 56.867 34.4357 56.9053 34.4487L58.5602 35.0082V35.2993ZM58.5602 36.0321L56.5 35.2928V35.0049L58.5602 35.7443V36.0321Z" fill="white"/>
<path d="M59.8985 36.3495L59.858 35.8588V35.368H60.1856V35.8588L60.1485 36.3495H59.8985Z" fill="#53E43B"/>
<path d="M60.5777 36.8599V37.0824H62.2765V36.8599H60.5777ZM60.5338 38.7705C61.0708 38.7705 61.7969 38.7607 62.4352 38.6592L62.4184 38.4564C61.7902 38.5317 61.0505 38.5382 60.5 38.5382L60.5338 38.7705ZM60.9053 37.0268V38.6004H61.1789V37.0268H60.9053ZM61.6753 37.0268V38.6004H61.9489V37.0268H61.6753ZM62.6041 36.5426V39.5H62.8878V36.5426H62.6041ZM62.8203 37.7236V37.9526H63.3876V37.7236H62.8203Z" fill="#53E43B"/>
<path d="M63.6274 38.5382V39.8173H64.6474V38.5382H64.3738V38.9438H63.901V38.5382H63.6274ZM63.901 39.163H64.3738V39.5982H63.901V39.163ZM64.8905 38.5382V39.8173H65.9139V38.5382H65.6403V38.9438H65.1607V38.5382H64.8905ZM65.1607 39.163H65.6403V39.5982H65.1607V39.163ZM63.3876 40.151V40.3735H66.1571V40.151H63.3876ZM64.6237 40.2655V41.368H64.9007V40.2655H64.6237Z" fill="#53E43B"/>
<path d="M68.7197 40V42.964H69V40H68.7197ZM66.673 42.0251V42.2508H66.9263C67.4498 42.2508 67.9091 42.2311 68.463 42.1428L68.4326 41.9204C67.8922 42.0054 67.4363 42.0251 66.9263 42.0251H66.673ZM66.6663 40.2781V40.5005H67.7943V41.1123H66.673V42.1101H66.9533V41.3348H68.078V40.2781H66.6663Z" fill="#53E43B"/>
<path d="M69.7501 41.9204L69.7095 41.4297V40.9389H70.0371V41.4297L70 41.9204H69.7501Z" fill="#53E43B"/>
<path d="M70.8231 44.4754V44.1842C70.9695 44.1515 71.0956 44.0905 71.2014 44.001C71.3072 43.9094 71.3883 43.7949 71.4446 43.6575C71.5031 43.5201 71.5324 43.3675 71.5324 43.1995V42.6107C71.5324 42.4384 71.5031 42.2835 71.4446 42.1461C71.386 42.0087 71.3038 41.8942 71.198 41.8026C71.0922 41.7088 70.9672 41.6456 70.8231 41.6128V41.3348C71.0325 41.3849 71.2126 41.47 71.3635 41.59C71.5144 41.7099 71.6303 41.8571 71.7114 42.0316C71.7947 42.2039 71.8363 42.3969 71.8363 42.6107V43.1995C71.8363 43.5245 71.7474 43.7993 71.5695 44.0239C71.3916 44.2486 71.1428 44.3991 70.8231 44.4754Z" fill="white"/>
<path d="M72.7739 45.3555L73.0441 44.3381H73.4831L73.0441 45.3555H72.7739ZM73.1792 43.4907C73.1049 43.4907 73.0441 43.4678 72.9968 43.422C72.9495 43.3762 72.9259 43.3173 72.9259 43.2454C72.9259 43.1756 72.9495 43.1178 72.9968 43.072C73.0463 43.024 73.1071 43 73.1792 43H73.2467C73.3188 43 73.3784 43.024 73.4257 43.072C73.4752 43.1178 73.5 43.1756 73.5 43.2454C73.5 43.3173 73.4764 43.3762 73.4291 43.422C73.3818 43.4678 73.321 43.4907 73.2467 43.4907H73.1792Z" fill="white"/>
</g>
<defs>
<clipPath id="clip0_44_8">
<rect width="79" height="79" fill="white" transform="matrix(-1 0 0 1 79 0)"/>
</clipPath>
</defs>
</svg>
