<svg width="92" height="61" viewBox="0 0 92 61" fill="none" xmlns="http://www.w3.org/2000/svg">
<path d="M119.976 0C109.961 0 99.7108 1.38813 90.2625 3.644C80.7139 5.92384 71.2289 7.78064 64.1989 13.2095C57.7958 18.1542 47.851 20.9054 39.315 23.4835C29.6491 26.4029 19.7576 27.7855 9.1593 27.7855" stroke="#C6D9AD" stroke-width="2" stroke-linecap="round"/>
<path d="M84.5297 5.09723C83.1263 6.87496 81.9057 8.63471 80.7072 10.4629C80.0676 11.4386 79.3736 12.3171 78.9631 13.3597C78.1672 15.3813 76.5728 17.2262 75.9088 19.2774C74.6028 23.3114 72.4929 27.27 72.4929 31.4478" stroke="#C6D9AD" stroke-width="2" stroke-linecap="round"/>
<path d="M72.4496 32.0752C72.4795 33.0175 73.1974 33.9565 73.8013 34.8099C74.408 35.6671 75.0322 36.4348 75.9858 37.1647C76.8287 37.8099 77.7488 38.582 79.0782 38.8696C80.1005 39.0908 80.1068 37.7649 79.8223 37.3926C79.3367 36.7568 78.7728 36.1691 78.2795 35.5315C78.0047 35.1763 77.557 34.7871 77.2146 34.4469C76.89 34.1244 76.2703 33.7579 75.7946 33.5185C74.8196 33.0279 74.3482 32.3203 73.1869 31.9613C72.4365 31.7294 72.2283 31.7247 71.7055 32.1892C71.304 32.546 70.7786 32.8568 70.306 33.1767C69.8754 33.4683 69.6423 33.8093 69.2821 34.1262C68.8733 34.4858 68.4503 34.832 68.1215 35.2234C67.8328 35.5672 67.4425 35.8497 67.2272 36.2194C66.9803 36.6435 66.8161 37.0736 66.6129 37.5065C66.2774 38.2207 66.2733 38.9324 66.3057 39.6714C66.3413 40.4879 67.8184 40.7538 68.6404 40.161C69.4676 39.5644 70.0152 38.7409 70.4835 38.0172C70.9286 37.3294 71.2737 36.6344 71.528 35.9113C71.7609 35.2492 71.8978 34.5694 71.9581 33.8983C72.0133 33.2841 72.2038 32.7027 72.2038 32.0752" stroke="#C6D9AD" stroke-width="2" stroke-linecap="round"/>
<path d="M77.877 16.1176C78.2278 18.2271 79.2714 20.0148 80.068 21.9734C80.4904 23.012 81.1644 23.9212 82.0588 24.6384C82.6846 25.1401 83.7976 25.8122 84.1525 24.6904C84.3779 23.9778 83.6636 23.007 83.3085 22.4158C83.041 21.9702 82.7296 21.5588 82.4592 21.1197C82.1635 20.6397 82.0381 20.2003 81.6747 19.7508C81.3323 19.3272 81.1016 18.9287 80.7009 18.5432C80.3565 18.2118 79.9514 17.8004 79.6514 17.4293C79.0509 16.6865 78.5038 15.9045 77.877 15.1807" stroke="#C6D9AD" stroke-width="2" stroke-linecap="round"/>
<path d="M77.8607 15.3695C73.2464 15.3695 68.5869 18.0547 67.3692 21.0639C66.9651 22.0624 68.5427 21.4755 69.0771 21.2004C69.9837 20.7336 70.8778 20.1628 71.6796 19.6124C72.5254 19.0318 73.438 18.517 74.2822 17.9375C75.1396 17.349 75.786 16.6765 76.5594 16.0394" stroke="#C6D9AD" stroke-width="2" stroke-linecap="round"/>
<path d="M62.0803 13.7349C59.6568 13.7349 56.7078 13.5078 54.7593 12.9584C52.5965 12.3486 50.2672 11.6362 47.8242 11.1726C45.2964 10.6929 43.4353 9.74423 41.5999 9.00035C40.9455 8.73512 37.0513 7.22891 40.0058 7.22891C42.0513 7.22891 44.4024 7.74497 45.9864 8.19157C46.9377 8.45981 48.1029 8.60319 48.9209 8.93952C49.8098 9.30502 50.886 9.6414 51.6218 10.0489C52.2861 10.4168 53.4086 10.6797 54.1806 11.0295C54.9481 11.3773 55.8538 11.6447 56.7799 11.9349C58.569 12.4954 60.0651 13.1326 62.0803 13.6061" stroke="#C6D9AD" stroke-width="2" stroke-linecap="round"/>
<path d="M38.9851 23.5203C38.3173 24.8685 37.0941 26.0824 36.4639 27.4282C35.9508 28.524 35.4976 29.6777 34.9186 30.7531C34.3965 31.7229 34.2161 32.7937 33.8523 33.7926C33.4634 34.8604 32.9203 35.8802 32.3161 36.8941C31.6842 37.9544 30.6924 38.8921 30.1202 39.9832C29.5155 41.1361 28.591 42.1823 27.8881 43.308C27.126 44.5287 26.424 45.7771 25.5567 46.9678C24.7754 48.0405 23.7872 48.87 23.5325 50.0942" stroke="#C6D9AD" stroke-width="2" stroke-linecap="round"/>
<path d="M23.2975 49.8795C23.1387 50.7192 23.2529 51.7458 23.4594 52.5834C23.6813 53.4833 23.828 54.4135 24.3199 55.2453C24.593 55.707 24.7478 56.2044 24.983 56.6813C25.1799 57.0804 25.4662 57.4384 25.6664 57.8317C25.9961 58.4794 26.7329 59.8551 27.6708 59.9898C28.8068 60.1529 28.2687 58.3177 28.1467 57.8905C27.863 56.897 27.3053 55.9992 26.7597 55.0942C26.4654 54.606 25.9538 54.2875 25.5753 53.8514C25.2462 53.4724 25.0056 53.055 24.6844 52.6758C24.3891 52.3272 24.2552 51.8834 23.9352 51.5422C23.6171 51.2029 23.3469 50.8685 23.1152 50.4841" stroke="#C6D9AD" stroke-width="2" stroke-linecap="round"/>
<path d="M23.1153 50.6153C22.3119 50.5444 21.4963 50.7777 20.7948 51.0233C20.1503 51.249 19.4681 51.4941 18.8693 51.7668C18.2952 52.0281 17.771 52.3223 17.1687 52.5586C16.4707 52.8323 16.0006 53.3144 15.4352 53.6789C14.932 54.0032 14.4599 54.356 14.0363 54.7232C13.5806 55.1181 12.9817 55.5417 12.6977 55.9991C12.3036 56.6339 11.3165 57.4807 11.5731 58.2086C11.934 59.2323 14.1913 57.685 14.6452 57.3856C15.7734 56.6415 16.7917 55.8566 17.8818 55.0931C18.4388 54.7031 18.6947 54.2 19.1875 53.7896C19.6333 53.4182 20.1913 53.0851 20.548 52.6692C21.1661 51.9484 21.9993 51.2971 22.7203 50.6153" stroke="#C6D9AD" stroke-width="2" stroke-linecap="round"/>
<path d="M31.7085 38.0692C31.7334 38.7846 32.1671 39.3797 32.4522 40.0491C32.6663 40.5517 32.8364 41.0822 33.1071 41.5729C33.4816 42.2515 33.9828 42.7896 34.6112 43.3704C34.9545 43.6877 36.4264 44.588 36.6815 43.7466C36.836 43.2367 36.9126 42.5305 36.5039 42.0708C36.2657 41.8029 36.1681 41.5003 35.9266 41.2309C35.694 40.9713 35.3893 40.7256 35.2051 40.4481C34.8211 39.8696 34.078 39.4464 33.5123 38.9622C33.0514 38.5678 32.4593 37.9622 31.7307 37.8488C30.9944 37.7342 30.3779 37.5904 29.605 37.5904C28.7668 37.5904 28.0021 37.675 27.1906 37.8108C26.3298 37.9548 25.3157 38.3004 24.6209 38.681C23.9447 39.0514 23.3646 39.2981 23.139 39.9161C22.9343 40.4766 24.1016 40.7105 24.7208 40.5621C25.1472 40.4599 25.605 40.4513 26.014 40.3113C26.4866 40.1495 26.8407 39.8725 27.3127 39.7109C28.0986 39.4418 28.814 39.0671 29.5051 38.6886C29.8217 38.5152 30.1888 38.4033 30.5319 38.2592C30.9282 38.0927 31.1707 37.8271 31.6086 37.7272" stroke="#C6D9AD" stroke-width="2" stroke-linecap="round"/>
<path d="M9.28888 27.479C7.79385 27.3214 6.90358 26.8482 5.97333 26.345C4.98198 25.8087 3.75676 25.2307 3.19362 24.5736C2.5841 23.8623 1.78841 21.8768 4.31555 21.6904C5.32674 21.6158 6.06845 22.705 6.3501 23.0097C6.9245 23.6312 7.52968 24.2758 8.00787 24.9108C8.42118 25.4596 8.88146 26.0474 9.13818 26.6155C9.22769 26.8136 9.47874 27.139 9.41447 27.3382C9.36909 27.4788 8.17284 27.4123 7.94089 27.4123C6.55413 27.4123 5.76209 27.9315 4.80116 28.2795C3.58895 28.7185 3.04594 29.286 2.35636 29.8804C1.7509 30.4023 1 30.9492 1 31.5481C1 32.0436 1.40727 32.595 1.98797 33.0156C3.45896 34.081 6.11035 31.2408 6.50918 30.7995C7.43297 29.7772 8.02053 28.7352 9.13818 27.7458" stroke="#C6D9AD" stroke-width="2" stroke-linecap="round"/>
</svg>
