<svg width="119" height="146" viewBox="0 0 119 146" fill="none" xmlns="http://www.w3.org/2000/svg">
<path d="M97.5001 14.5C96.5367 11.6098 95.025 9.09847 94.5001 8.5C94.025 7.59847 92.2986 6.36867 91.5001 6.16905C90.398 5.89352 87.6165 5.91413 86.5001 6.00001C83.2226 6.25213 82.3289 6.16906 79.021 6.16906C77.5001 6.5 78.1928 6.16906 76.5001 7.5C75.2283 8.5 72.58 10 71.5001 12.5C70.6447 14.4802 69.4061 17.6822 68.5672 19.97C67.458 22.9951 67.3173 26.404 66.89 29.5781C66.645 31.3982 66.3078 33.2376 65.8738 35.0217C65.4724 36.6718 65.3777 38.3962 65.0992 40.0674C64.766 42.0666 64.3785 44.1732 64.2819 46.2004C64.1978 47.9679 63.7915 49.6585 63.6352 51.4166C63.4315 53.7082 62.9786 56.0494 62.5124 58.3029C62.0592 60.4932 61.8158 62.7211 61.3611 64.912C60.8897 67.1836 60.1014 69.3648 59.6982 71.6632C59.4138 73.2845 58.9592 74.935 58.5185 76.5241C58.0532 78.2022 57.751 79.868 57.751 81.6124L57.751 81.6729C57.7511 82.8552 57.7511 83.9601 57.5236 85.123C57.3303 86.1112 57.0205 87.249 56.5997 88.1647C56.4336 88.5262 55.7248 90.2822 56.1165 90.5383C56.3572 90.6957 58.0557 89.8485 58.3906 89.6997C59.1288 89.3716 60.0479 89.3715 60.821 89.5433C62.7989 89.9828 64.7047 90.5165 66.6058 91.2347C67.5613 91.5957 68.2665 91.653 69.2352 91.2347C70.2211 90.809 70.9314 89.7804 71.8504 89.2164C72.7434 88.6685 73.5717 87.8785 74.6362 87.6814C75.7976 87.4663 76.7901 87.5251 77.9621 87.5251C80.1968 87.5251 82.8503 88.5578 84.8057 89.5718C85.6499 90.0095 86.8419 90.7476 87.8047 90.8438C88.8166 90.945 89.5632 90.3875 90.363 89.8276C91.0853 89.322 92.0212 88.8762 92.8646 88.6195C93.719 88.3594 94.8603 88.5484 95.7498 88.5484C96.6286 88.5484 97.8735 88.6342 98.6777 88.9961C99.6886 89.451 100.581 90.0583 101.563 90.5312C102.394 90.9313 103.457 92.0489 104.384 92.123C105.409 92.205 106.146 91.955 107 91.4337C108.649 90.4257 110.167 89.072 111.988 88.3636C112.798 88.0489 114.244 88.2519 115.065 88.4916C115.64 88.6592 116.164 88.7376 116.693 89.0317C116.988 89.1958 117.548 89.4 117.873 89.2378C119.755 88.2967 118.394 85.7776 118.064 84.2632C117.879 83.409 117.489 82.5149 117.489 81.6408C117.489 80.7487 117.136 79.6721 116.849 78.8266C116.158 76.79 115.027 74.9466 114.646 72.8145C113.964 68.9952 112.261 65.4744 111.576 61.6572C110.71 56.828 109.17 52.0118 107.668 47.3587C106.67 44.2681 105.399 41.2589 104.47 38.1486C103.985 36.5283 103.513 34.9011 103.006 33.2877C102.456 31.5415 101.523 29.8426 101.144 28.0431C100.798 26.4009 100.347 24.7894 99.8645 23.1822C99.0001 20.3008 98.5148 17.5439 97.5001 14.5Z" fill="white" fill-opacity="0.5"/>
<path d="M63.7825 29.3059C63.7825 24.2637 65.64 20.8915 68.2919 16.1871C71.2619 12.4408 80.5986 6.87944 86.0107 6.87944C92.7165 6.87944 98.3441 9.86514 101.816 14.7316C105.671 20.1342 107.647 25.4825 107.647 31.7765C107.647 34.3099 106.999 36.6141 106.508 39.0924C106.005 41.6319 105.806 44.3587 103.934 46.5232C99.9417 51.1398 94.7694 54.4519 87.7643 54.4519C81.5471 54.4519 75.301 53.4514 70.7516 49.6257C67.0481 46.5114 64.382 40.546 63.8053 36.1813C63.5099 33.946 63.7825 31.5563 63.7825 29.3059Z" fill="#F6F0DA" stroke="#F7F0DA" stroke-linecap="round"/>
<ellipse cx="100.5" cy="44.2614" rx="2.5" ry="1.26137" fill="#FEB1B1"/>
<ellipse cx="72.5001" cy="44.2614" rx="2.5" ry="1.26137" fill="#FEB1B1"/>
<path d="M84.0001 48C84.5071 48.7011 85.3058 49.0737 86.8262 48.9878C87.9129 48.9265 88.8264 48.5295 89.0001 48" stroke="black" stroke-linecap="round"/>
<path d="M109.681 32.7C109.02 32.2343 108.367 32.7608 107.85 33.1319C107.532 33.5254 107.532 35.4046 107.532 35.8978C107.532 36.3411 107.411 36.9593 107.54 37.3845C107.647 37.7345 108.85 37.2898 109.048 37.2059C110.334 36.6628 110.511 35.449 110.477 34.2532C110.46 33.6658 110.189 33.0578 109.681 32.7Z" fill="#F6F0DA" stroke="#F7F0DA" stroke-linecap="round"/>
<path d="M61.4676 33.0625C62.1289 32.5968 62.7816 33.1232 63.2984 33.4944C63.6168 33.8878 63.6168 35.7671 63.6168 36.2602C63.6168 36.7036 63.7373 37.3218 63.608 37.7469C63.5015 38.097 62.2985 37.6523 62.1 37.5684C60.8148 37.0252 60.6372 35.8114 60.6717 34.6157C60.6886 34.0282 60.9597 33.4202 61.4676 33.0625Z" fill="#F6F0DA" stroke="#F7F0DA" stroke-linecap="round"/>
<circle cx="95.0001" cy="39" r="3" fill="black"/>
<circle cx="96.5001" cy="38.5" r="0.5" fill="white"/>
<circle cx="77.0001" cy="39" r="3" fill="black"/>
<circle cx="78.5001" cy="38.5" r="0.5" fill="white"/>
<circle cx="108.668" cy="37.8794" r="1" fill="white"/>
<circle cx="62.6678" cy="38.8794" r="1" fill="white"/>
<path d="M69.9059 13.3222C70.6676 12.4286 71.6838 11.5438 72.8186 10.8711C75.3566 9.36675 78.6543 8.28531 81.3141 7.00867C82.8099 6.29073 84.56 6 86.2176 6C87.7569 6 89.3326 6.17582 90.8654 6.29353C92.4683 6.41662 94.296 6.83916 95.7189 7.59039C96.3944 7.94706 97.1372 8.23696 97.8037 8.61507C99.4826 9.56739 100.71 11.1359 101.803 12.7271C101.862 12.813 101.927 12.9037 102 13C102.87 14.1441 103.376 14.5285 103.938 15.5142C104.5 16.5 105.097 17.5 105.346 18.2169C105.521 18.7205 105.722 19.2959 105.918 19.8353C106.386 21.1248 107.019 22.3923 107.488 23.6811C108.073 25.2833 108.328 26.8403 108.5 27.5C108.847 28.8314 108.687 29.1206 108.687 30.3522C108.613 30.9861 108.567 31.4273 108.521 31.8192C108.428 32.6074 108.263 33.372 108 34.1206C107.867 34.4983 107.725 35.081 107.589 34.8939C107.453 34.7086 107.282 34.4824 107.094 34.2452C106.41 33.381 105.721 32.5138 104.926 31.7505C104.375 31.2224 103.679 30.8275 103.08 30.3522C101.831 29.3623 100.476 28.4543 99.0268 27.7585C97.7065 27.1248 96.4416 26.3736 95.124 25.7411C94.5262 25.4542 93.9409 25.2087 93.3227 24.978C92.6628 24.7316 92.0586 24.4818 91.4158 24.2041C90.1732 23.6673 88.8239 23.0766 87.5186 22.6938C86.2157 22.3116 85.0337 21.6042 83.7158 21.2528C82.487 20.9251 81.4213 20.344 80.1132 20.6231C79.5015 20.7535 78.9114 20.9435 78.3119 21.1034C77.6249 21.2866 77.1258 21.6824 76.4884 21.9466C75.0682 22.5353 73.687 23.6965 72.6078 24.7325C71.417 25.8756 69.7432 26.5871 68.605 27.8012C67.989 28.4582 67.1191 28.8768 66.509 29.5357C65.9722 30.1154 65.5116 30.7619 65.0079 31.3662C64.1449 32.4018 63.9292 33.8156 63.1455 34.9099C62.8028 35.3884 62.4497 33.8172 62.3783 33.5703C62.1997 32.9534 62.1003 32.3952 62.1003 31.7451C62.1003 31.1063 62.0002 30.4717 62.0002 29.8239C62.0002 29.2471 61.9919 28.4667 62.1225 27.9026C62.4116 26.6538 62.18 25.348 62.8008 24.1561C63.4133 22.9801 63.8029 21.6876 64.402 20.5056C65.7769 17.7925 67.9346 15.6351 69.9059 13.3222Z" fill="black" stroke="black" stroke-linecap="round"/>
<path d="M80.0001 21.1206C80.0001 20.1361 79.8864 19.2021 79.8234 18.2288C79.7569 17.2032 79.4378 16.2116 79.3587 15.1942C79.2797 14.1789 79.0001 13.1778 79.0001 12.1595C79.0001 11.1145 79.1016 10.1483 79.2728 9.12056" stroke="#F6F0DA" stroke-width="0.3" stroke-linecap="round"/>
<path d="M76.5271 5.05602C76.8736 6.48063 77.1729 7.89924 77.586 9.31066C77.8988 10.3794 80.0224 9.82121 80.9897 9.82121C82.0251 9.82121 83.0311 9.65103 84.0531 9.65103C86.1647 9.65103 88.2343 9.82121 90.3405 9.82121C91.6967 9.87944 92.5243 9.68574 92.8649 8.45973C93.1369 7.48049 93.5809 6.47478 93.7536 5.48148C93.8294 5.04583 94.8731 2.55681 94.5668 2.4465C94.0862 2.27351 92.3426 3.32027 91.8438 3.52435C90.9383 3.89477 89.5332 4.98237 88.6481 4.19563C87.7813 3.42517 87.4206 2.20316 86.9462 1.17957C86.5489 0.322172 84.732 2.79244 84.384 3.18397C83.5452 4.12765 82.6698 4.3697 81.6705 4.98038C80.7804 5.52431 79.4916 4.72935 78.7773 4.0349C78.5136 3.77847 76.22 1.49813 76.0733 2.01159C75.8132 2.92171 76.3138 4.17939 76.5271 5.05602Z" fill="white" stroke="white" stroke-linecap="round"/>
<path d="M84.1017 59.9537C83.944 58.4493 83.9672 55.4092 84.1908 53.9272C84.5796 53.1026 85.4061 53 85.9396 53C86.5805 53 87.2033 53.3091 87.8342 53.3091C88.0682 53.3091 88.75 53.0591 88.8503 53.6267C88.9634 54.2663 88.9273 54.9658 88.9273 55.6355C88.9273 57.1864 89.0001 58.7286 89.0001 60.2627C89.0001 61.1806 88.8715 61.4722 88.4172 61.4989C88.1205 61.5164 87.8232 61.4849 87.5265 61.4989C86.7578 61.5352 85.9794 61.808 85.2109 61.808C84.9666 61.808 84.3097 62.2621 84.1503 61.7736C84.0119 61.3499 84.154 60.4529 84.1017 59.9537Z" fill="#F6F0DA" stroke="#F6F0DA" stroke-width="3" stroke-linecap="round"/>
<path d="M83.3114 61.7321C84.1547 61.2572 84.2911 61.2638 84.6294 60.8667C84.8709 60.9223 87.5187 61.0069 88.4482 61.052C88.9518 61.3083 89.3316 62.3128 90.2987 62.3597C91.5499 62.6249 95.1112 61.7889 96.6297 63.3629C97.7218 64.4949 98.273 66.9365 98.565 67.8396C98.8777 68.8064 105.37 91.2419 105.675 92.222C105.804 92.7233 107.641 98.0106 106.98 98.4943C106.318 98.9781 104.089 93.6926 104.089 93.6926C103.407 91.683 96.5361 72.5685 95.6163 71.099C94.9541 71.2511 88.9661 70.7763 88.2969 70.7438L82.1576 70.4459L79.0296 70.2941C78.3609 70.2616 78.1224 69.9649 77.2987 71.7577C76.8621 72.708 68.925 91.081 68.4469 91.9629C67.9893 92.8068 65.803 97.0118 65.1915 96.4663C64.58 95.9207 65.901 91.8393 66.6374 89.8116C67.3738 87.7838 73.923 68.6256 74.5652 66.8571C74.7473 66.425 76.9731 62.7759 77.2173 62.4208C77.7151 62.0567 80.1041 62.0923 81.0588 62.1386C82.0135 62.185 82.7816 62.0305 83.3114 61.7321Z" fill="#F6F0DA" stroke="#F6F0DA" stroke-width="3" stroke-linecap="round"/>
<ellipse cx="79.5" cy="140.5" rx="2.5" ry="5.5" fill="white"/>
<ellipse cx="79.5" cy="139.5" rx="1.5" ry="3.5" fill="#F6F0DA"/>
<ellipse cx="95.5" cy="140.5" rx="2.5" ry="5.5" fill="white"/>
<ellipse cx="95.5" cy="139.5" rx="1.5" ry="3.5" fill="#F6F0DA"/>
<path d="M78.2108 70.8595C77.915 69.9348 77.01 61.5196 75.5429 62.0216C74.51 63.0196 78.9855 81.5021 78.2107 86C77.5214 90.0021 65.6062 134.603 66.01 135.607C66.4139 136.61 82.5867 139.52 86.8376 139.52C91.6958 139.52 103.347 138.735 104.51 136.52C105.674 134.304 94.9998 89.5 94.9998 86C94.9998 82.9254 98.01 62.0216 96.5304 62.0216C95.0508 62.0216 94.0563 72.6641 93.7034 72.707C93.3153 72.7542 88.7019 72.7178 88.3117 72.707C87.0892 72.7393 80.7078 72.8096 79.8333 72.8096C79.3211 72.8096 79.002 72.795 78.7548 72.1938C78.5743 71.755 78.357 71.3168 78.2108 70.8595Z" fill="white" stroke="white" stroke-width="3" stroke-linecap="round"/>
<path d="M31.1016 65.8168C30.9439 63.4767 30.967 58.7477 31.1907 56.4422C31.5795 55.1597 32.406 55 32.9395 55C33.5804 55 34.2032 55.4807 34.8341 55.4807C35.0681 55.4807 35.7498 55.092 35.8502 55.9748C35.9633 56.9698 35.9271 58.0578 35.9271 59.0997C35.9271 61.5122 36 63.9112 36 66.2976C36 67.7253 35.8714 68.1789 35.417 68.2206C35.1204 68.2477 34.8231 68.1988 34.5264 68.2206C33.7577 68.2769 32.9792 68.7013 32.2108 68.7013C31.9665 68.7013 31.3096 69.4077 31.1501 68.6479C31.0118 67.9888 31.1539 66.5934 31.1016 65.8168Z" fill="#F6F0DA" stroke="#F6F0DA" stroke-width="3" stroke-linecap="round"/>
<path d="M11.1147 31.5603C11.1147 26.5181 12.9722 23.1458 15.6241 18.4415C18.5941 14.6952 27.9307 9.13379 33.3428 9.13379C40.0486 9.13379 45.6763 12.1195 49.1485 16.9859C53.0033 22.3886 54.9789 27.7369 54.9789 34.0308C54.9789 36.5642 54.3313 38.8684 53.8401 41.3467C53.3368 43.8863 53.1385 46.6131 51.2666 48.7775C47.2739 53.3941 42.1015 56.7063 35.0965 56.7063C28.8793 56.7063 22.6331 55.7057 18.0837 51.8801C14.3802 48.7657 11.7142 42.8004 11.1374 38.4357C10.8421 36.2004 11.1147 33.8107 11.1147 31.5603Z" fill="#F6F0DA" stroke="#F7F0DA" stroke-linecap="round"/>
<path d="M52 46.2614C52 46.958 50.8807 47.5227 49.5 47.5227C48.1193 47.5227 47 46.958 47 46.2614C47 45.5647 48.1193 45 49.5 45C50.8807 45 52 45.5647 52 46.2614Z" fill="#FEB1B1"/>
<path d="M21 46.2386C21 46.9353 19.8807 47.5 18.5 47.5C17.1193 47.5 16 46.9353 16 46.2386C16 45.542 17.1193 44.9773 18.5 44.9773C19.8807 44.9773 21 45.542 21 46.2386Z" fill="#FEB1B1"/>
<path d="M32 49.1338C32.4056 49.7234 33.0445 50.0366 34.2609 49.9645C35.1302 49.9129 35.861 49.5791 36 49.1338" stroke="black" stroke-linecap="round"/>
<circle cx="43" cy="39.1338" r="3" fill="black"/>
<circle cx="44.5" cy="38.6338" r="0.5" fill="white"/>
<circle cx="25" cy="39.1338" r="3" fill="black"/>
<circle cx="26.5" cy="38.6338" r="0.5" fill="white"/>
<circle cx="43.5" cy="40.5" r="7.25" stroke="#A08165" stroke-width="0.5"/>
<circle cx="23.5" cy="40.5" r="7.25" stroke="#A08165" stroke-width="0.5"/>
<path d="M51 39C51 39 54.7762 38.0546 55 38" stroke="#A08165" stroke-width="0.5" stroke-linecap="round"/>
<path d="M11 38C11.5 38.1667 15.7483 38.9454 16 39" stroke="#A08165" stroke-width="0.5" stroke-linecap="round"/>
<path d="M31 40C31 40 35.8149 40 36 40" stroke="#A08165" stroke-width="0.5" stroke-linecap="round"/>
<path d="M37.9808 26.4974C38.7158 25.4017 39.6817 23.473 40.0949 22.2385C40.288 23.2942 40.6477 24.3714 40.8801 25.4299C41.1753 26.7744 41.3151 28.154 41.6411 29.4907C41.7657 30.0013 41.9127 30.7347 42.2693 31.1525C42.4973 31.4195 42.5669 31.8218 42.9217 31.9833C43.1456 32.0853 43.4401 32.1112 43.6827 32.1649C44.9346 32.4423 46.252 32.202 47.482 32.5941C48.6329 32.9611 49.9143 33.1334 51.1303 33.1334C52.3822 33.1334 53.7783 33.1566 54.9899 32.8582C55.588 32.711 55.6779 31.8693 55.8114 31.4001C56.0209 30.6638 56.041 29.8324 55.9443 29.0725C55.779 27.7736 55.2429 23.5059 54.9899 22.2385C54.4404 19.4851 54 18.1338 53 16.6338C51.5 14.1338 51.5 14.1338 50.5 12.6338C49.6533 11.3637 46.5 9.38379 45 8.63379C42.7639 7.51575 39.2859 6.71945 35.5 6.13379C32.273 5.63459 27.3346 6.62066 24.2454 7.63377C20.6549 8.81129 17.9153 11.7615 15.201 14.9375C12.4867 18.1135 11.4122 20.2233 10.2204 23.1044C9.20591 25.5571 9 28.3854 9 31.0479C9 31.4867 9.01126 32.1413 9.21745 32.5391C9.59501 33.2675 9.90574 33.0343 10.6308 33.0343C11.9219 33.0343 13.1587 32.7695 14.4362 32.7372C15.0253 32.7223 15.5709 32.4401 16.1697 32.4401H17.9153C19.2665 32.4401 20.5972 32.4683 21.9381 32.5446C22.7497 32.5908 23.4528 32.6968 24.2454 32.4401C24.8781 32.2351 25.7734 32.1429 26.444 32.1429C27.63 32.1429 28.7985 31.9732 29.9836 31.9448C31.137 31.9172 32.2903 31.3802 33.4627 31.3506C34.9668 31.3125 35.3836 30.2648 36.3922 29.5182C37.2993 28.8468 37.4009 27.3619 37.9808 26.4974Z" fill="#564D44" stroke="#564D44" stroke-width="3" stroke-linecap="round"/>
<ellipse cx="43" cy="139.5" rx="4" ry="6.5" fill="black"/>
<ellipse cx="28" cy="139.5" rx="4" ry="6.5" fill="black"/>
<path d="M22 136.818C22 135.624 23 101.204 23 98.5C23 97.2043 44.6105 97.4502 44.6105 99.1142C44.6105 101.318 47 135.818 47 136.818C47 137.818 37.5 138 37.5 137C37.5 135.5 34.1105 109.318 33.6105 109.318C33.1105 109.318 31 134.97 31 136.818C31 138 22 137.818 22 136.818Z" fill="#EDEBE0" stroke="#EDEBE0" stroke-width="3" stroke-linecap="round"/>
<rect x="28" y="64.0252" width="10" height="21" fill="white"/>
<path d="M34 64C34.1213 63.8729 37.5157 61.0252 37.5157 61.0252C37.5157 61.0252 37.7877 61.2674 38.0105 61.5021C38.3547 61.8647 38.7574 62.2578 39 62.456C38.9448 62.5391 35.8374 66.2715 35.6663 66.0123C35.6138 65.9327 33.9754 64.0974 34 64Z" fill="white" stroke="white" stroke-linecap="round"/>
<path d="M29.1249 60.5428C29.2768 60.6412 34 64 34 64C33.6835 64.4067 32.1637 65.7235 32 66C31.8568 66.2418 27.0567 62.7777 27.2956 62.5617C27.3689 62.4954 29.0201 60.5354 29.1249 60.5428Z" fill="white" stroke="white" stroke-linecap="round"/>
<path d="M6.94647 98.6813C5.57102 100.388 3.45848 100.969 2.22799 99.9772C0.997499 98.9858 1.11502 96.7982 2.49047 95.091C3.86593 93.3839 5.97847 92.8037 7.20896 93.7951C8.43945 94.7865 8.32193 96.9742 6.94647 98.6813Z" fill="#F7F0DA"/>
<path d="M62.926 94.481C63.9796 96.4035 63.7104 98.5777 62.3247 99.3371C60.9389 100.097 58.9614 99.1538 57.9078 97.2313C56.8542 95.3087 57.1234 93.1346 58.5091 92.3751C59.8948 91.6157 61.8723 92.5585 62.926 94.481Z" fill="#F7F0DA"/>
<path d="M22.064 63.5482C24 63.0482 27.4702 61.0482 27.9702 62.5482C28.4702 64.0482 26.4526 65.3912 27.2281 66.3882C27.7317 67.0357 27.6865 67.8522 27.9702 68.5773C28.3003 69.4208 28.6156 70.2858 29.0242 71.1032C29.3937 71.8422 29.6118 72.9712 30.1968 73.5729C30.6727 74.0625 32.8628 85.3017 33.5 85.3403C34.3003 85.273 37.5479 73.8795 38.342 73.7912C39.1469 73.7018 38.8946 71.0861 39.0405 70.4296C39.3757 68.9213 38.2931 67.5977 38 66.0482C37.8592 65.3042 38.2886 63.2878 38.5 62.5482C39.5 62.0482 43.5354 62.1014 44.5 63.5482C45.5 65.0482 61.5 92.0482 61.5 93.5482C61.5 94.9651 59 97.0482 57.7695 96.5482C57 96.0482 45.0527 73.7989 45.0527 75.7932C45.0527 79.0482 46.5 99 46.5 100.291C46.5 101.583 41.5 103.5 34 103.5C26.5 103.5 21 101.532 21 100.291C21 99.1858 21.8645 78.4228 22.053 75.851C20.7594 77.9197 8.91874 96.1923 7.99996 96.5482C7.25801 96.8357 4 94.5712 4 93.5482C4 91.5482 19 68.0482 19.5 67.0482L19.5 67.0482C20.1324 65.7833 21 64.0482 22.064 63.5482Z" fill="#EDEBE0" stroke="#EDEBE0" stroke-width="3" stroke-linecap="round"/>
<path d="M24.5 62.6597C24.5 62.0806 27.7988 61.5286 28 62.1597C29.0001 63.3288 33.4965 85.931 34 87.1596C34.0069 86.7382 38.297 63.9623 38.5 62.6597C38.797 61.8664 40.7763 62.3076 41.5 62.6597C42.2804 63.0394 41.1876 64.76 41.0553 65.26C40.7237 66.5127 38.5661 70.3689 38.5553 70.76C38.6812 70.966 39.2684 73.2802 39.2832 73.3751C39.3446 73.9274 34.7772 89.6596 34 89.6596C33.2228 89.6596 27.3662 73.8702 27.5 73.3751C27.6309 72.8909 28.2768 71.4027 28.5 70.76C28.6017 70.4671 25 64.5806 24.5 62.6597Z" fill="#DFDDD1" stroke="#DFDDD1" stroke-width="3" stroke-linecap="round"/>
<path d="M20 101C22.5 102.5 24 103.5 34 103.5C43.0139 103.5 44.5 102.5 47.5 101" stroke="#DFDDD1" stroke-linecap="round"/>
<path d="M34 89C34 90.935 34 92.6748 34 94.6C34 95.5333 34 96.4667 34 97.4C34 99.2661 34 101.151 34 103" stroke="#DFDDD1" stroke-linecap="round"/>
<path d="M34 66L29.5 69.4641L29.5 62.5359L34 66Z" fill="black"/>
<path d="M34 66L38.5 62.5359L38.5 69.4641L34 66Z" fill="black"/>
</svg>
